<svg id="svg" version="1.1" xmlns="http://www.w3.org/2000/svg" xmlns:xlink="http://www.w3.org/1999/xlink" viewBox="0, 0, 400, 350"><style>
    @media (prefers-color-scheme: dark) {
      #path0 { fill: #9cd8c4 }
    }
  </style><g id="svgg"><path id="path0" d="M157.506 56.236 C 39.457 92.073,16.042 255.371,119.072 324.282 C 160.407 351.928,217.469 355.996,260.200 334.343 L 270.591 329.078 268.338 337.952 C 265.132 350.581,266.584 350.663,286.532 338.968 C 302.061 329.864,304.649 327.450,306.476 320.364 C 307.631 315.886,311.646 300.639,315.399 286.483 C 319.152 272.326,322.222 259.724,322.222 258.480 C 322.222 257.235,306.753 252.023,287.847 246.897 L 253.472 237.578 235.642 247.863 C 214.225 260.216,213.154 261.570,223.296 263.473 C 234.806 265.632,234.675 268.004,222.792 272.587 C 192.800 284.153,155.914 271.685,136.823 243.528 C 89.266 173.386,171.959 87.977,241.262 135.659 C 250.595 142.081,264.444 158.149,264.444 162.556 C 264.444 163.594,240.679 164.444,211.632 164.444 C 150.953 164.444,147.340 165.323,138.389 182.250 C 128.745 200.487,135.194 221.451,153.249 230.556 C 163.035 235.491,164.312 235.556,251.481 235.556 L 339.799 235.556 341.566 227.222 C 363.884 121.991,259.705 25.212,157.506 56.236 " stroke="none" fill="#000000" fill-rule="evenodd"></path></g></svg>