<svg viewBox="0 0 526 98" fill="none" xmlns="http://www.w3.org/2000/svg" ref="svgRef"
    aria-labelledby="Flexibility">
    <title id="Flexibility"/>
<path id="path" d="M0 75H8.1V43.7H37.8V36.4H8.1V12.4H39.9V5H0V75Z"/>
 <path id="path2" d="M54.3828 75H83.2828V68.2H72.7828V0H54.3828V6.8H64.8828V68.2H54.3828V75Z"/>
  <path id="path3" d="M119.473 76.3C131.473 76.3 140.073 69.4 142.973 59.7L135.273 57.9C133.573 65.1 126.873 69.3 119.573 69.3C108.773 69.3 101.973 62.8 101.873 51.2H143.673V48.3C143.673 32.7 134.673 21.7 118.973 21.7C105.173 21.7 93.7734 32.6 93.7734 49.2C93.7734 65.2 103.673 76.3 119.473 76.3ZM102.073 44.8C102.673 35 110.473 28.8 118.973 28.8C127.573 28.8 135.073 34 135.573 44.8H102.073Z"/>
  <path id="path4" d="M152.184 75H161.384L175.684 53.9H176.584L191.084 75H200.384L181.584 48.3L198.984 23H189.684L176.584 42.6H175.984L162.884 23H153.584L170.984 47.9L152.184 75Z"/>
  <path id="path5" d="M225.606 13.6C229.006 13.6 231.406 11.1 231.406 7.8C231.406 4.6 229.006 2.1 225.606 2.1C222.306 2.1 219.906 4.6 219.906 7.8C219.906 11.1 222.306 13.6 225.606 13.6ZM221.706 75H229.606V23H211.906V29.7H221.706V75Z"/>
 <path id="path6" d="M278.079 76.3C292.879 76.3 303.479 65 303.479 49.1C303.479 33.1 293.379 21.7 278.679 21.7C267.779 21.7 262.479 28.7 260.879 31.4H260.279V0H252.379V75H259.979V66.8H260.579C261.879 68.7 266.779 76.3 278.079 76.3ZM277.579 69.2C266.779 69.2 259.979 60.1 259.979 49.2C259.979 36.3 267.979 28.9 277.779 28.9C287.979 28.9 295.379 37.3 295.379 49.2C295.379 61.3 287.579 69.2 277.579 69.2Z"/>
  <path id="path7" d="M331.216 13.6C334.616 13.6 337.016 11.1 337.016 7.8C337.016 4.6 334.616 2.1 331.216 2.1C327.916 2.1 325.516 4.6 325.516 7.8C325.516 11.1 327.916 13.6 331.216 13.6ZM327.316 75H335.216V23H317.516V29.7H327.316V75Z"/>
  <path id="path8" d="M355.488 75H384.388V68.2H373.888V0H355.488V6.8H365.988V68.2H355.488V75Z"/>
   <path id="path9" d="M408.602 13.6C412.002 13.6 414.402 11.1 414.402 7.8C414.402 4.6 412.002 2.1 408.602 2.1C405.302 2.1 402.902 4.6 402.902 7.8C402.902 11.1 405.302 13.6 408.602 13.6ZM404.702 75H412.602V23H394.902V29.7H404.702V75Z"/>
    <path id="path10" d="M455.975 75H463.375V68.1H455.875C450.375 68.1 448.075 65.7 448.075 60.1V29.7H464.075V23H448.075V7.90001H440.675V23H430.375V29.7H440.175V60.2C440.175 70.7 446.475 75 455.975 75Z"/>
     <path id="path11" d="M478.539 98H484.039C492.439 98 497.239 95 499.839 88.2L525.139 23H516.239L500.139 67.4H499.539L484.339 23H475.539L494.639 75H496.739L493.039 84.7C491.439 88.8 489.139 90.8 484.339 90.8H478.539V98Z"/>
     
</svg>
