<svg viewBox="0 0 176 34" xmlns="http://www.w3.org/2000/svg" >
<path d="M78.5171 2.80449C78.5171 3.17435 78.4443 3.54059 78.3027 3.88229C78.1612 4.224 77.9538 4.53448 77.6922 4.79601C77.164 5.32419 76.4477 5.62092 75.7007 5.62092C74.9558 5.61776 74.2425 5.31964 73.7169 4.7918C73.1913 4.26396 72.8962 3.54939 72.8962 2.80449C72.8962 2.4362 72.9688 2.07152 73.1097 1.73126C73.2506 1.391 73.4572 1.08184 73.7176 0.821417C73.978 0.560996 74.2872 0.354418 74.6275 0.213479C74.9677 0.0725404 75.3324 1.13653e-10 75.7007 1.13654e-10V1.13655e-10C76.4456 -6.68711e-06 77.1602 0.295084 77.688 0.820689C78.2159 1.34629 78.514 2.0596 78.5171 2.80449ZM72.8962 30.921C72.9427 31.6348 73.2591 32.304 73.781 32.7931C74.303 33.2821 74.9914 33.5542 75.7067 33.5542C76.4219 33.5542 77.1104 33.2821 77.6323 32.7931C78.1543 32.304 78.4706 31.6348 78.5171 30.921V7.72131H72.8962V30.921ZM175.744 7.5423H171.077V1.13655e-10H165.456V7.5423H160.79V13.1274H165.456V30.921C165.503 31.6348 165.819 32.304 166.341 32.7931C166.863 33.2821 167.552 33.5542 168.267 33.5542C168.982 33.5542 169.671 33.2821 170.193 32.7931C170.714 32.304 171.031 31.6348 171.077 30.921V13.1274H175.744V7.5423ZM13.441 6.87399C11.3014 6.87157 9.19219 7.38054 7.28918 8.3585C5.38617 9.33645 3.74445 10.7551 2.50082 12.4961C1.2572 14.2372 0.447698 16.2502 0.139771 18.3675C-0.168156 20.4848 0.0344128 22.6451 0.730597 24.6682C1.42678 26.6914 2.59642 28.5189 4.14203 29.9984C5.68765 31.4779 7.56448 32.5665 9.61613 33.1737C11.6678 33.7808 13.8348 33.8888 15.9366 33.4886C18.0385 33.0885 20.0142 32.1918 21.6993 30.8733L23.382 32.914L25.0528 24.7273H16.6989L18.31 26.7083C16.9493 27.7376 15.2964 28.3075 13.5904 28.3357C11.8844 28.3639 10.2137 27.8488 8.81967 26.865C7.42566 25.8812 6.3806 24.4795 5.83557 22.8627C5.29053 21.2459 5.27375 19.4976 5.78765 17.8706C6.30155 16.2436 7.31951 14.8222 8.69438 13.8118C10.0693 12.8014 11.7298 12.2544 13.436 12.2498C15.1422 12.2452 16.8057 12.7833 18.186 13.7863C19.5663 14.7893 20.5919 16.2052 21.1145 17.8294H9.18052C8.80441 17.8236 8.43098 17.8935 8.08245 18.035C7.73391 18.1764 7.4174 18.3866 7.15174 18.6529C6.88905 18.9113 6.68083 19.2197 6.5394 19.56C6.39796 19.9003 6.32618 20.2654 6.32829 20.6339C6.32829 21.3809 6.62502 22.0972 7.1532 22.6254C7.68138 23.1536 8.39775 23.4503 9.14472 23.4503H26.4848C26.7263 22.4338 26.8465 21.3923 26.8429 20.3475C26.8491 18.5804 26.5065 16.8294 25.8346 15.195C25.1627 13.5606 24.1748 12.0749 22.9275 10.8232C21.6801 9.57141 20.198 8.57821 18.566 7.90051C16.934 7.22282 15.1842 6.87398 13.4171 6.87399H13.441ZM120.775 6.87399C117.271 7.02126 113.963 8.53413 111.56 11.089C109.157 13.6438 107.849 17.0377 107.916 20.5446C107.983 24.0515 109.42 27.3929 111.919 29.854C114.418 32.3151 117.781 33.7004 121.289 33.7136C124.325 33.7169 127.271 32.6856 129.642 30.7898C130.196 30.3403 130.549 29.6892 130.623 28.9798C130.697 28.2703 130.486 27.5606 130.036 27.0067C129.587 26.4528 128.936 26.1001 128.226 26.0263C127.517 25.9524 126.807 26.1634 126.253 26.6128C124.842 27.7353 123.092 28.3454 121.289 28.3433C120.229 28.3464 119.179 28.1404 118.199 27.737C117.219 27.3335 116.328 26.7407 115.577 25.9923C114.827 25.244 114.231 24.3549 113.825 23.376C113.418 22.3971 113.209 21.3477 113.209 20.2878C113.251 18.1907 114.099 16.1902 115.577 14.7014C117.055 13.2127 119.049 12.3499 121.145 12.292C122.808 12.2694 124.437 12.7619 125.809 13.7021C127.181 14.6422 128.228 15.9839 128.807 17.543C128.807 17.6504 128.891 17.7697 128.926 17.8771H116.992C116.622 17.8761 116.256 17.9483 115.914 18.0897C115.572 18.231 115.261 18.4386 114.999 18.7006C114.737 18.959 114.529 19.2675 114.387 19.6077C114.246 19.948 114.174 20.3132 114.176 20.6816C114.176 21.4286 114.473 22.145 115.001 22.6732C115.529 23.2013 116.245 23.4981 116.992 23.4981H134.285C134.372 23.1319 134.44 22.7615 134.488 22.3882C134.594 21.7293 134.646 21.0627 134.643 20.3952C134.655 18.5853 134.301 16.7915 133.603 15.1217C132.904 13.452 131.875 11.9407 130.578 10.6788C129.28 9.41687 127.741 8.43036 126.052 7.77856C124.363 7.12677 122.561 6.82314 120.752 6.88592L120.775 6.87399ZM67.502 17.6146C67.4865 17.2622 67.4467 16.9113 67.3827 16.5644C67.2712 15.8811 67.0831 15.2126 66.8218 14.5714C66.2025 12.9374 65.1776 11.4878 63.8435 10.3591C62.5095 9.23036 60.9102 8.45965 59.1962 8.11947C57.4821 7.77929 55.7097 7.88083 54.0457 8.41453C52.3818 8.94824 50.881 9.89655 49.6846 11.1702C49.5294 11.3254 49.3981 11.4925 49.2669 11.6476C49.0998 11.4567 48.9327 11.2538 48.7537 11.0748C47.1572 9.4179 45.0496 8.34632 42.7702 8.03244C40.4908 7.71857 38.1721 8.18065 36.1872 9.34433V7.72131H30.5663V30.921C30.6128 31.6348 30.9291 32.304 31.4511 32.7931C31.973 33.2821 32.6615 33.5542 33.3767 33.5542C34.092 33.5542 34.7804 33.2821 35.3024 32.7931C35.8243 32.304 36.1407 31.6348 36.1872 30.921V16.0274C36.4458 15.4275 36.8141 14.8811 37.2732 14.4163C37.7925 13.8843 38.4149 13.4639 39.1024 13.1807C39.7898 12.8975 40.5277 12.7576 41.2711 12.7694C42.0063 12.7765 42.7322 12.9349 43.4035 13.2347C44.0749 13.5344 44.6774 13.9691 45.1735 14.5118C45.6735 15.0379 46.0559 15.6644 46.2953 16.3496C46.4302 16.6861 46.5185 17.0394 46.5578 17.3998C46.5819 17.578 46.5819 17.7586 46.5578 17.9368C46.5713 18.1514 46.5713 18.3667 46.5578 18.5813L46.534 31.3148C46.534 32.027 46.8169 32.71 47.3204 33.2135C47.824 33.7171 48.507 34 49.2191 34C49.9313 34 50.6143 33.7171 51.1178 33.2135C51.6214 32.71 51.9043 32.027 51.9043 31.3148L51.7611 18.5813C51.7768 18.2672 51.7768 17.9525 51.7611 17.6385C51.753 17.4386 51.7331 17.2393 51.7014 17.0418C51.7588 16.7821 51.8346 16.5269 51.9282 16.278C52.1967 15.5835 52.6026 14.9503 53.1216 14.4163C53.6423 13.8828 54.2666 13.4615 54.9562 13.1783C55.6458 12.8951 56.386 12.7559 57.1314 12.7694C57.8664 12.778 58.5918 12.937 59.2629 13.2366C59.9341 13.5363 60.5368 13.9703 61.0338 14.5118C61.4911 15.0506 61.836 15.6755 62.0482 16.3496C62.172 16.6896 62.26 17.0415 62.3107 17.3998C62.3231 17.5786 62.3231 17.758 62.3107 17.9368C62.3107 18.1039 62.3107 18.2829 62.3107 18.5813L62.1675 31.3148C62.177 32.0281 62.4686 32.7085 62.9785 33.2073C63.4885 33.7061 64.1752 33.9825 64.8885 33.9761C65.2406 33.973 65.5885 33.9004 65.9125 33.7624C66.2364 33.6244 66.5299 33.4238 66.776 33.1721C67.0222 32.9204 67.2162 32.6225 67.347 32.2956C67.4777 31.9687 67.5426 31.6192 67.5378 31.2671L67.4066 18.5335C67.514 18.3426 67.502 17.9965 67.4782 17.6385L67.502 17.6146ZM104.402 17.6146C104.387 17.2622 104.347 16.9113 104.283 16.5644C104.173 15.873 103.985 15.1963 103.722 14.5476C103.188 13.1484 102.355 11.8825 101.281 10.8381C100.208 9.79381 98.9196 8.99617 97.5063 8.50081C96.0929 8.00545 94.5885 7.8243 93.098 7.96998C91.6074 8.11567 90.1666 8.58468 88.8759 9.34433V7.72131H83.2669V30.921C83.2669 31.6648 83.5623 32.3782 84.0883 32.9041C84.6142 33.43 85.3276 33.7255 86.0714 33.7255C86.8152 33.7255 87.5285 33.43 88.0544 32.9041C88.5804 32.3782 88.8759 31.6648 88.8759 30.921V16.0274C89.1433 15.4323 89.5106 14.8874 89.9618 14.4163C90.4826 13.8828 91.1069 13.4615 91.7965 13.1783C92.4861 12.8951 93.2263 12.7559 93.9717 12.7694C94.7026 12.7812 95.4235 12.9418 96.0903 13.2413C96.7571 13.5409 97.3559 13.9732 97.8502 14.5118C98.3717 15.0345 98.7782 15.6605 99.0436 16.3496C99.173 16.6879 99.2611 17.0405 99.3062 17.3998C99.3185 17.5786 99.3185 17.758 99.3062 17.9368C99.3196 18.1514 99.3196 18.3667 99.3062 18.5813L99.163 31.3148C99.1724 32.0281 99.464 32.7085 99.974 33.2073C100.484 33.7061 101.171 33.9825 101.884 33.9761C102.236 33.973 102.584 33.9004 102.908 33.7624C103.232 33.6244 103.525 33.4238 103.771 33.1721C104.018 32.9204 104.212 32.6225 104.342 32.2956C104.473 31.9687 104.538 31.6192 104.533 31.2671L104.414 18.5813C104.414 18.3426 104.402 17.9965 104.378 17.6385L104.402 17.6146ZM158.177 17.6146C158.161 17.2622 158.121 16.9113 158.057 16.5644C157.936 15.8755 157.749 15.2 157.496 14.5476C156.994 13.2414 156.231 12.0515 155.253 11.0509C154.278 10.0513 153.113 9.25819 151.825 8.71894C150.537 8.1797 149.154 7.90534 147.758 7.91225C145.984 7.93017 144.245 8.40709 142.71 9.2966V7.72131H137.089V30.921C137.092 31.6659 137.391 32.3792 137.918 32.9048C138.446 33.4304 139.161 33.7255 139.906 33.7255C140.649 33.7255 141.363 33.43 141.889 32.9041C142.415 32.3782 142.71 31.6648 142.71 30.921V15.9558C143.083 15.1385 143.652 14.426 144.366 13.8815C145.08 13.337 145.918 12.9773 146.805 12.8344C147.692 12.6915 148.6 12.7699 149.449 13.0625C150.298 13.3551 151.062 13.8529 151.673 14.5118C152.147 15.0484 152.512 15.6728 152.747 16.3496C152.87 16.6896 152.958 17.0415 153.009 17.3998C153.022 17.5786 153.022 17.758 153.009 17.9368C153.009 18.1039 153.009 18.2829 153.009 18.5813L152.866 31.3148C152.866 32.027 153.149 32.71 153.652 33.2135C154.156 33.7171 154.839 34 155.551 34C156.263 34 156.946 33.7171 157.45 33.2135C157.953 32.71 158.236 32.027 158.236 31.3148L158.105 18.5813C158.189 18.3426 158.177 17.9965 158.153 17.6385L158.177 17.6146Z" stroke-dasharray="956.5963745117188" style="stroke-dashoffset: 0px;"></path></svg>