<svg  id="Layer_1" data-name="Layer 1" xmlns="http://www.w3.org/2000/svg" viewBox="0 0 294 97.93" fill="none" aria-labelledby="Technology is not the outcome of our work; innovation is."><defs><style>.cls-1{}</style></defs><path class="cls-1" d="M64.73,120.11h-6v17.15H54V120.11H48v-3.86h16.7Z" transform="translate(-47.81 -115.05)"/><path class="cls-1" d="M77.88,131.08H68.1c.15,2.18,1.53,3.27,4.11,3.27a8,8,0,0,0,4.35-1.18v3.34a11.28,11.28,0,0,1-5.4,1.12A7,7,0,0,1,63.51,130a8,8,0,0,1,2.17-5.92A7.21,7.21,0,0,1,71,121.89a6.56,6.56,0,0,1,5.08,2,7.53,7.53,0,0,1,1.79,5.29Zm-4.29-2.84c0-2.15-.87-3.23-2.61-3.23a2.47,2.47,0,0,0-1.92.93,4.2,4.2,0,0,0-1,2.3Z" transform="translate(-47.81 -115.05)"/><path class="cls-1" d="M92,136.72a9.18,9.18,0,0,1-4.52.91,7.65,7.65,0,0,1-5.6-2.1,7.25,7.25,0,0,1-2.14-5.4,8,8,0,0,1,2.3-6,8.46,8.46,0,0,1,6.13-2.21,7.82,7.82,0,0,1,3.83.71v3.92a5.26,5.26,0,0,0-3.23-1.08A4.54,4.54,0,0,0,85.56,133a4.11,4.11,0,0,0,3.06,1.13A6.11,6.11,0,0,0,92,133Z" transform="translate(-47.81 -115.05)"/><path class="cls-1" d="M109.44,137.26h-4.62v-8.52q0-3.3-2.4-3.3a2.46,2.46,0,0,0-2,.92,3.57,3.57,0,0,0-.76,2.35v8.55H95V115.05h4.63v9.44h0a5.27,5.27,0,0,1,4.62-2.6c3.4,0,5.1,2.06,5.1,6.16Z" transform="translate(-47.81 -115.05)"/><path class="cls-1" d="M127.58,137.26H123v-8.33c0-2.33-.83-3.49-2.49-3.49a2.49,2.49,0,0,0-2,.92,3.57,3.57,0,0,0-.77,2.35v8.55H113.1v-15h4.63v2.37h.06a5.31,5.31,0,0,1,4.81-2.74c3.32,0,5,2.07,5,6.19Z" transform="translate(-47.81 -115.05)"/><path class="cls-1" d="M138.4,137.63a8,8,0,0,1-5.9-2.11,8.67,8.67,0,0,1,.08-11.52,8.41,8.41,0,0,1,6-2.11,8,8,0,0,1,5.86,2.11,7.45,7.45,0,0,1,2.12,5.56,7.93,7.93,0,0,1-2.19,5.9A8.17,8.17,0,0,1,138.4,137.63Zm.11-12.19a3.11,3.11,0,0,0-2.55,1.13,5,5,0,0,0-.9,3.19q0,4.32,3.48,4.32t3.33-4.44Q141.87,125.44,138.51,125.44Z" transform="translate(-47.81 -115.05)"/><path class="cls-1" d="M154.22,137.26h-4.63V115.05h4.63Z" transform="translate(-47.81 -115.05)"/><path class="cls-1" d="M165.26,137.63a8.06,8.06,0,0,1-5.9-2.11,8.69,8.69,0,0,1,.09-11.52,8.41,8.41,0,0,1,6-2.11,8,8,0,0,1,5.86,2.11,7.48,7.48,0,0,1,2.12,5.56,7.93,7.93,0,0,1-2.19,5.9A8.18,8.18,0,0,1,165.26,137.63Zm.12-12.19a3.08,3.08,0,0,0-2.55,1.13,4.93,4.93,0,0,0-.91,3.19q0,4.32,3.49,4.32,3.32,0,3.32-4.44Q168.73,125.44,165.38,125.44Z" transform="translate(-47.81 -115.05)"/><path class="cls-1" d="M191.16,135.55a8.47,8.47,0,0,1-2.42,6.46q-2.42,2.3-7,2.3a11,11,0,0,1-4.8-.87v-3.89a9.26,9.26,0,0,0,4.67,1.34,5.05,5.05,0,0,0,3.63-1.23,4.46,4.46,0,0,0,1.29-3.37v-1.18h-.06a5.16,5.16,0,0,1-4.67,2.52,5.65,5.65,0,0,1-4.56-2,8.23,8.23,0,0,1-1.68-5.42,9.12,9.12,0,0,1,1.87-6,6.12,6.12,0,0,1,4.94-2.25,4.56,4.56,0,0,1,4.1,2.11h.06v-1.74h4.63Zm-4.57-5.5v-1.18a3.66,3.66,0,0,0-.84-2.43,2.73,2.73,0,0,0-2.19-1,2.84,2.84,0,0,0-2.42,1.2,5.62,5.62,0,0,0-.88,3.38,4.76,4.76,0,0,0,.84,3,2.69,2.69,0,0,0,2.28,1.09,2.84,2.84,0,0,0,2.32-1.1A4.57,4.57,0,0,0,186.59,130.05Z" transform="translate(-47.81 -115.05)"/><path class="cls-1" d="M209.31,122.26l-6.1,16.2q-2.19,5.85-6.62,5.85a8.54,8.54,0,0,1-2.76-.38v-3.7a3.79,3.79,0,0,0,2,.55,2.52,2.52,0,0,0,2.49-1.69l.79-1.86-6.09-15h5.13l2.79,9.13a10.63,10.63,0,0,1,.41,2h.06a13.7,13.7,0,0,1,.49-2l2.82-9.16Z" transform="translate(-47.81 -115.05)"/><path class="cls-1" d="M221.79,119.89a2.69,2.69,0,0,1-1.92-.7,2.22,2.22,0,0,1-.75-1.7,2.15,2.15,0,0,1,.75-1.7,3.14,3.14,0,0,1,3.85,0,2.18,2.18,0,0,1,.74,1.7,2.23,2.23,0,0,1-.74,1.72A2.77,2.77,0,0,1,221.79,119.89Zm2.28,17.37h-4.62v-15h4.62Z" transform="translate(-47.81 -115.05)"/><path class="cls-1" d="M227,136.87v-3.75a9.94,9.94,0,0,0,2.28,1,7.32,7.32,0,0,0,2.14.34,4.5,4.5,0,0,0,1.94-.34,1.08,1.08,0,0,0,.71-1,.94.94,0,0,0-.32-.74,3.2,3.2,0,0,0-.82-.51,9.56,9.56,0,0,0-1.11-.4,10.52,10.52,0,0,1-1.16-.39,11.58,11.58,0,0,1-1.57-.73,4.38,4.38,0,0,1-1.15-.9,3.59,3.59,0,0,1-.7-1.18,4.77,4.77,0,0,1-.24-1.6,4.09,4.09,0,0,1,.55-2.17A4.49,4.49,0,0,1,229,123a6.57,6.57,0,0,1,2.1-.85,10.34,10.34,0,0,1,2.45-.28,14.62,14.62,0,0,1,4,.61v3.57a7.22,7.22,0,0,0-1.88-.77,8,8,0,0,0-2-.26,4.54,4.54,0,0,0-.85.08,3.38,3.38,0,0,0-.72.24,1.33,1.33,0,0,0-.48.39.92.92,0,0,0-.17.55,1,1,0,0,0,.26.71,2.32,2.32,0,0,0,.69.5,6.81,6.81,0,0,0,.94.38l1,.35a13.76,13.76,0,0,1,1.67.7,5.49,5.49,0,0,1,1.28.89,3.7,3.7,0,0,1,.82,1.21,4.82,4.82,0,0,1-.3,3.91,4.51,4.51,0,0,1-1.53,1.54,6.87,6.87,0,0,1-2.22.87,12.26,12.26,0,0,1-2.6.27A13.58,13.58,0,0,1,227,136.87Z" transform="translate(-47.81 -115.05)"/><path class="cls-1" d="M263.93,137.26h-4.61v-8.33c0-2.33-.83-3.49-2.49-3.49a2.49,2.49,0,0,0-2,.92,3.53,3.53,0,0,0-.78,2.35v8.55h-4.62v-15h4.62v2.37h.06a5.32,5.32,0,0,1,4.82-2.74c3.32,0,5,2.07,5,6.19Z" transform="translate(-47.81 -115.05)"/><path class="cls-1" d="M274.74,137.63a8,8,0,0,1-5.89-2.11,8.67,8.67,0,0,1,.08-11.52,8.41,8.41,0,0,1,6-2.11,8,8,0,0,1,5.86,2.11,7.48,7.48,0,0,1,2.12,5.56,7.93,7.93,0,0,1-2.19,5.9A8.18,8.18,0,0,1,274.74,137.63Zm.12-12.19a3.11,3.11,0,0,0-2.55,1.13,5,5,0,0,0-.91,3.19c0,2.88,1.17,4.32,3.49,4.32s3.32-1.48,3.32-4.44C278.21,126.84,277.1,125.44,274.86,125.44Z" transform="translate(-47.81 -115.05)"/><path class="cls-1" d="M295,137.08a6.69,6.69,0,0,1-3.09.55q-4.89,0-4.89-5.09v-6.87h-2.43v-3.41H287V119l4.61-1.31v4.55H295v3.41h-3.37v6.07q0,2.34,1.86,2.34a3.17,3.17,0,0,0,1.51-.42Z" transform="translate(-47.81 -115.05)"/><path class="cls-1" d="M58.59,173.08a6.69,6.69,0,0,1-3.09.55q-4.89,0-4.89-5.09v-6.87H48.18v-3.41h2.43V155l4.61-1.31v4.55h3.37v3.41H55.22v6.07q0,2.34,1.86,2.34a3.17,3.17,0,0,0,1.51-.42Z" transform="translate(-47.81 -115.05)"/><path class="cls-1" d="M75.6,173.26H71v-8.52q0-3.3-2.4-3.3a2.47,2.47,0,0,0-2,.92,3.57,3.57,0,0,0-.76,2.35v8.55H61.2V151.05h4.63v9.44h.06a5.26,5.26,0,0,1,4.61-2.6c3.4,0,5.1,2.06,5.1,6.16Z" transform="translate(-47.81 -115.05)"/><path class="cls-1" d="M92.74,167.08H83q.24,3.27,4.12,3.27a8,8,0,0,0,4.35-1.18v3.34A11.35,11.35,0,0,1,86,173.63,7,7,0,0,1,78.37,166a8,8,0,0,1,2.16-5.92,7.23,7.23,0,0,1,5.34-2.19,6.54,6.54,0,0,1,5.07,2,7.49,7.49,0,0,1,1.8,5.29Zm-4.3-2.84c0-2.15-.86-3.23-2.6-3.23a2.47,2.47,0,0,0-1.93.93,4.2,4.2,0,0,0-1,2.3Z" transform="translate(-47.81 -115.05)"/><path class="cls-1" d="M110.92,173.63a8,8,0,0,1-5.9-2.11A8.67,8.67,0,0,1,105.1,160a8.41,8.41,0,0,1,6-2.11A8,8,0,0,1,117,160a7.45,7.45,0,0,1,2.12,5.56,7.93,7.93,0,0,1-2.19,5.9A8.17,8.17,0,0,1,110.92,173.63Zm.11-12.19a3.11,3.11,0,0,0-2.55,1.13,5,5,0,0,0-.9,3.19q0,4.32,3.48,4.32,3.33,0,3.33-4.44Q114.39,161.44,111,161.44Z" transform="translate(-47.81 -115.05)"/><path class="cls-1" d="M136.36,173.26h-4.61V171h-.08a5.24,5.24,0,0,1-4.58,2.65q-5.22,0-5.22-6.32v-9.05h4.62v8.64q0,3.18,2.52,3.18a2.49,2.49,0,0,0,2-.87,3.51,3.51,0,0,0,.75-2.37v-8.58h4.61Z" transform="translate(-47.81 -115.05)"/><path class="cls-1" d="M149.32,173.08a6.69,6.69,0,0,1-3.09.55q-4.89,0-4.89-5.09v-6.87h-2.43v-3.41h2.43V155l4.61-1.31v4.55h3.37v3.41H146v6.07q0,2.34,1.86,2.34a3.14,3.14,0,0,0,1.51-.42Z" transform="translate(-47.81 -115.05)"/><path class="cls-1" d="M163.18,172.72a9.2,9.2,0,0,1-4.53.91,7.63,7.63,0,0,1-5.59-2.1,7.21,7.21,0,0,1-2.14-5.4,8,8,0,0,1,2.29-6,8.47,8.47,0,0,1,6.13-2.21,7.84,7.84,0,0,1,3.84.71v3.92a5.31,5.31,0,0,0-3.24-1.08,4.27,4.27,0,0,0-3.15,1.16,4.35,4.35,0,0,0-1.17,3.22,4.25,4.25,0,0,0,1.12,3.13,4.11,4.11,0,0,0,3.06,1.13,6.11,6.11,0,0,0,3.38-1.08Z" transform="translate(-47.81 -115.05)"/><path class="cls-1" d="M173.36,173.63a8,8,0,0,1-5.89-2.11,8.67,8.67,0,0,1,.08-11.52,8.41,8.41,0,0,1,6-2.11,8,8,0,0,1,5.86,2.11,7.48,7.48,0,0,1,2.12,5.56,7.93,7.93,0,0,1-2.19,5.9A8.18,8.18,0,0,1,173.36,173.63Zm.12-12.19a3.09,3.09,0,0,0-2.55,1.13,4.93,4.93,0,0,0-.91,3.19q0,4.32,3.49,4.32,3.31,0,3.32-4.44Q176.83,161.44,173.48,161.44Z" transform="translate(-47.81 -115.05)"/><path class="cls-1" d="M208.37,173.26h-4.61v-8.55c0-2.18-.8-3.27-2.41-3.27a2.22,2.22,0,0,0-1.86,1,4.1,4.1,0,0,0-.71,2.45v8.39h-4.63v-8.64c0-2.12-.79-3.18-2.36-3.18a2.26,2.26,0,0,0-1.9.94,4.13,4.13,0,0,0-.71,2.55v8.33h-4.63v-15h4.63v2.34h.06a5.54,5.54,0,0,1,2-1.95,5.59,5.59,0,0,1,2.84-.76,4.33,4.33,0,0,1,4.35,2.8,5.56,5.56,0,0,1,5-2.8c3.26,0,4.89,2,4.89,6Z" transform="translate(-47.81 -115.05)"/><path class="cls-1" d="M225.51,167.08h-9.79q.24,3.27,4.12,3.27a8,8,0,0,0,4.35-1.18v3.34a11.34,11.34,0,0,1-5.4,1.12,7,7,0,0,1-7.65-7.63,8,8,0,0,1,2.17-5.92,7.2,7.2,0,0,1,5.33-2.19,6.56,6.56,0,0,1,5.08,2,7.53,7.53,0,0,1,1.79,5.29Zm-4.29-2.84c0-2.15-.87-3.23-2.61-3.23a2.5,2.5,0,0,0-1.93.93,4.12,4.12,0,0,0-1,2.3Z" transform="translate(-47.81 -115.05)"/><path class="cls-1" d="M243.69,173.63a8,8,0,0,1-5.9-2.11,8.7,8.7,0,0,1,.08-11.52,8.43,8.43,0,0,1,6-2.11,8,8,0,0,1,5.86,2.11,7.45,7.45,0,0,1,2.13,5.56,7.93,7.93,0,0,1-2.19,5.9A8.18,8.18,0,0,1,243.69,173.63Zm.12-12.19a3.08,3.08,0,0,0-2.55,1.13,4.93,4.93,0,0,0-.91,3.19q0,4.32,3.48,4.32,3.33,0,3.33-4.44Q247.16,161.44,243.81,161.44Z" transform="translate(-47.81 -115.05)"/><path class="cls-1" d="M264.21,154.6a4.55,4.55,0,0,0-1.71-.35c-1.49,0-2.23.8-2.23,2.41v1.6h3.43v3.41h-3.43v11.59h-4.61V161.67h-2.52v-3.41h2.52V156.4a5.37,5.37,0,0,1,1.67-4.13,6.33,6.33,0,0,1,4.54-1.57,7.78,7.78,0,0,1,2.34.3Z" transform="translate(-47.81 -115.05)"/><path class="cls-1" d="M281.35,173.63a8,8,0,0,1-5.9-2.11,8.7,8.7,0,0,1,.08-11.52,8.45,8.45,0,0,1,6-2.11,8,8,0,0,1,5.86,2.11,7.45,7.45,0,0,1,2.13,5.56,7.93,7.93,0,0,1-2.19,5.9A8.18,8.18,0,0,1,281.35,173.63Zm.12-12.19a3.08,3.08,0,0,0-2.55,1.13,4.93,4.93,0,0,0-.91,3.19q0,4.32,3.49,4.32,3.31,0,3.32-4.44Q284.82,161.44,281.47,161.44Z" transform="translate(-47.81 -115.05)"/><path class="cls-1" d="M306.79,173.26h-4.61V171h-.07a5.26,5.26,0,0,1-4.59,2.65c-3.48,0-5.21-2.11-5.21-6.32v-9.05h4.61v8.64q0,3.18,2.52,3.18a2.49,2.49,0,0,0,2-.87,3.51,3.51,0,0,0,.75-2.37v-8.58h4.61Z" transform="translate(-47.81 -115.05)"/><path class="cls-1" d="M320.48,162.44a4,4,0,0,0-2-.46,2.81,2.81,0,0,0-2.36,1.11,4.79,4.79,0,0,0-.85,3v7.16h-4.63v-15h4.63V161h.06a4,4,0,0,1,3.95-3,3.21,3.21,0,0,1,1.15.17Z" transform="translate(-47.81 -115.05)"/><path class="cls-1" d="M71.25,194.26l-4.32,15H62.06l-2.21-8.79a8.67,8.67,0,0,1-.25-1.92h-.09a10.42,10.42,0,0,1-.29,1.86l-2.37,8.85H52l-4.23-15h4.72l2.06,9.79a12.2,12.2,0,0,1,.22,1.67h.09a10,10,0,0,1,.26-1.73l2.58-9.73h4.41l2.31,9.79a15,15,0,0,1,.21,1.7h.1a16.17,16.17,0,0,1,.24-1.7L67,194.26Z" transform="translate(-47.81 -115.05)"/><path class="cls-1" d="M80.45,209.63a8,8,0,0,1-5.9-2.11A8.67,8.67,0,0,1,74.63,196a8.43,8.43,0,0,1,6-2.11A8,8,0,0,1,86.51,196a7.45,7.45,0,0,1,2.12,5.56,7.93,7.93,0,0,1-2.19,5.9A8.15,8.15,0,0,1,80.45,209.63Zm.11-12.19A3.11,3.11,0,0,0,78,198.57a5,5,0,0,0-.9,3.19q0,4.32,3.48,4.32,3.33,0,3.33-4.44Q83.92,197.44,80.56,197.44Z" transform="translate(-47.81 -115.05)"/><path class="cls-1" d="M101.42,198.44a3.91,3.91,0,0,0-2-.46,2.79,2.79,0,0,0-2.35,1.11,4.79,4.79,0,0,0-.85,3v7.16H91.64v-15h4.63V197h.06a4,4,0,0,1,4-3,3.11,3.11,0,0,1,1.14.17Z" transform="translate(-47.81 -115.05)"/><path class="cls-1" d="M118.61,209.26h-5.56l-4.79-7.44h-.05v7.44h-4.63V187.05h4.63v14.14h.05l4.47-6.93h5.49l-5.37,7.05Z" transform="translate(-47.81 -115.05)"/><path class="cls-1" d="M125.93,205.57,123.78,213h-3.61l1.5-7.41Zm-2.21-6.67a2.72,2.72,0,0,1-1.92-.7,2.24,2.24,0,0,1-.76-1.71,2.17,2.17,0,0,1,.77-1.74,2.88,2.88,0,0,1,1.94-.67,2.76,2.76,0,0,1,1.94.69,2.21,2.21,0,0,1,.75,1.72,2.26,2.26,0,0,1-.74,1.74A2.84,2.84,0,0,1,123.72,198.9Z" transform="translate(-47.81 -115.05)"/><path class="cls-1" d="M140.3,191.89a2.69,2.69,0,0,1-1.92-.7,2.22,2.22,0,0,1-.75-1.7,2.15,2.15,0,0,1,.75-1.7,3.14,3.14,0,0,1,3.85,0,2.18,2.18,0,0,1,.74,1.7,2.23,2.23,0,0,1-.74,1.72A2.77,2.77,0,0,1,140.3,191.89Zm2.28,17.37H138v-15h4.62Z" transform="translate(-47.81 -115.05)"/><path class="cls-1" d="M161,209.26h-4.62v-8.33c0-2.33-.83-3.49-2.49-3.49a2.46,2.46,0,0,0-2,.92,3.53,3.53,0,0,0-.78,2.35v8.55h-4.63v-15h4.63v2.37h.06a5.31,5.31,0,0,1,4.82-2.74c3.32,0,5,2.07,5,6.19Z" transform="translate(-47.81 -115.05)"/><path class="cls-1" d="M179.12,209.26H174.5v-8.33c0-2.33-.83-3.49-2.49-3.49a2.46,2.46,0,0,0-2,.92,3.53,3.53,0,0,0-.78,2.35v8.55h-4.63v-15h4.63v2.37h.06a5.31,5.31,0,0,1,4.82-2.74c3.32,0,5,2.07,5,6.19Z" transform="translate(-47.81 -115.05)"/><path class="cls-1" d="M189.93,209.63a8,8,0,0,1-5.9-2.11,8.7,8.7,0,0,1,.08-11.52,8.43,8.43,0,0,1,6-2.11A8,8,0,0,1,196,196a7.45,7.45,0,0,1,2.13,5.56,7.93,7.93,0,0,1-2.19,5.9A8.18,8.18,0,0,1,189.93,209.63Zm.12-12.19a3.08,3.08,0,0,0-2.55,1.13,4.93,4.93,0,0,0-.91,3.19q0,4.32,3.49,4.32,3.31,0,3.32-4.44Q193.4,197.44,190.05,197.44Z" transform="translate(-47.81 -115.05)"/><path class="cls-1" d="M215.4,194.26l-5.58,15h-5.27l-5.32-15h5l2.61,9.24a13.91,13.91,0,0,1,.51,2.67h.06a15.74,15.74,0,0,1,.54-2.58l2.67-9.33Z" transform="translate(-47.81 -115.05)"/><path class="cls-1" d="M229.41,209.26H225v-2.15H225a4.9,4.9,0,0,1-4.47,2.52,4.67,4.67,0,0,1-3.43-1.24,4.43,4.43,0,0,1-1.26-3.3c0-2.91,1.73-4.59,5.17-5l4.08-.55q0-2.46-2.67-2.46a9.14,9.14,0,0,0-5.1,1.6v-3.49a11.54,11.54,0,0,1,2.65-.87,13.48,13.48,0,0,1,3.05-.39q6.42,0,6.42,6.41Zm-4.35-6.09v-1l-2.73.35c-1.5.19-2.25.87-2.25,2a1.7,1.7,0,0,0,.54,1.3,2.12,2.12,0,0,0,1.49.51,2.77,2.77,0,0,0,2.13-.91A3.28,3.28,0,0,0,225.06,203.17Z" transform="translate(-47.81 -115.05)"/><path class="cls-1" d="M242.14,209.08a6.76,6.76,0,0,1-3.1.55q-4.89,0-4.89-5.09v-6.87h-2.43v-3.41h2.43V191l4.62-1.31v4.55h3.37v3.41h-3.37v6.07q0,2.34,1.86,2.34a3.17,3.17,0,0,0,1.51-.42Z" transform="translate(-47.81 -115.05)"/><path class="cls-1" d="M247.09,191.89a2.69,2.69,0,0,1-1.92-.7,2.22,2.22,0,0,1-.75-1.7,2.15,2.15,0,0,1,.75-1.7,2.8,2.8,0,0,1,1.92-.66,2.76,2.76,0,0,1,1.92.66,2.14,2.14,0,0,1,.74,1.7,2.2,2.2,0,0,1-.74,1.72A2.73,2.73,0,0,1,247.09,191.89Zm2.28,17.37h-4.63v-15h4.63Z" transform="translate(-47.81 -115.05)"/><path class="cls-1" d="M260.42,209.63a8,8,0,0,1-5.9-2.11A8.7,8.7,0,0,1,254.6,196a8.43,8.43,0,0,1,6-2.11,8,8,0,0,1,5.86,2.11,7.45,7.45,0,0,1,2.13,5.56,7.93,7.93,0,0,1-2.19,5.9A8.18,8.18,0,0,1,260.42,209.63Zm.11-12.19a3.07,3.07,0,0,0-2.54,1.13,4.93,4.93,0,0,0-.91,3.19q0,4.32,3.48,4.32,3.33,0,3.33-4.44Q263.89,197.44,260.53,197.44Z" transform="translate(-47.81 -115.05)"/><path class="cls-1" d="M286.1,209.26h-4.62v-8.33c0-2.33-.83-3.49-2.49-3.49a2.49,2.49,0,0,0-2,.92,3.57,3.57,0,0,0-.77,2.35v8.55h-4.63v-15h4.63v2.37h.06a5.31,5.31,0,0,1,4.82-2.74c3.32,0,5,2.07,5,6.19Z" transform="translate(-47.81 -115.05)"/><path class="cls-1" d="M300.38,191.89a2.69,2.69,0,0,1-1.92-.7,2.22,2.22,0,0,1-.75-1.7,2.15,2.15,0,0,1,.75-1.7,2.8,2.8,0,0,1,1.92-.66,2.76,2.76,0,0,1,1.92.66,2.14,2.14,0,0,1,.74,1.7,2.2,2.2,0,0,1-.74,1.72A2.73,2.73,0,0,1,300.38,191.89Zm2.28,17.37H298v-15h4.63Z" transform="translate(-47.81 -115.05)"/><path class="cls-1" d="M305.58,208.87v-3.75a9.94,9.94,0,0,0,2.28,1,7.32,7.32,0,0,0,2.14.34,4.5,4.5,0,0,0,1.94-.34,1.08,1.08,0,0,0,.71-1,.94.94,0,0,0-.32-.74,3.1,3.1,0,0,0-.83-.51,8.76,8.76,0,0,0-1.1-.4,10.52,10.52,0,0,1-1.16-.39,11,11,0,0,1-1.57-.73,4.6,4.6,0,0,1-1.15-.9,3.42,3.42,0,0,1-.7-1.18,4.77,4.77,0,0,1-.24-1.6,4.09,4.09,0,0,1,.55-2.17,4.4,4.4,0,0,1,1.46-1.48,6.57,6.57,0,0,1,2.1-.85,10.34,10.34,0,0,1,2.45-.28,14,14,0,0,1,2,.16,13.73,13.73,0,0,1,2,.45v3.57a7.22,7.22,0,0,0-1.88-.77,8,8,0,0,0-2-.26,4.74,4.74,0,0,0-.86.08,3.48,3.48,0,0,0-.71.24,1.33,1.33,0,0,0-.48.39.93.93,0,0,0-.18.55,1,1,0,0,0,.27.71,2.2,2.2,0,0,0,.69.5,6.34,6.34,0,0,0,.94.38l1,.35a12.53,12.53,0,0,1,1.67.7,5.35,5.35,0,0,1,1.29.89,3.7,3.7,0,0,1,.82,1.21,4.82,4.82,0,0,1-.3,3.91,4.54,4.54,0,0,1-1.54,1.54,7,7,0,0,1-2.21.87,12.26,12.26,0,0,1-2.6.27A13.54,13.54,0,0,1,305.58,208.87Z" transform="translate(-47.81 -115.05)"/><path class="cls-1" d="M321.82,209.63a2.7,2.7,0,0,1-1.9-.71,2.23,2.23,0,0,1-.76-1.72,2.18,2.18,0,0,1,.78-1.73,2.9,2.9,0,0,1,2-.68,2.82,2.82,0,0,1,1.94.68,2.37,2.37,0,0,1,0,3.48A2.92,2.92,0,0,1,321.82,209.63Z" transform="translate(-47.81 -115.05)"/></svg>