<svg id="Layer_1" data-name="Layer 1" xmlns="http://www.w3.org/2000/svg" viewBox="0 0 279.25 60.9" aria-labelledby="We're partners in the success of your team."><defs><style>.cls-1{}</style></defs><path class="cls-1" d="M75.47,116.17l-5.19,19.61H65.39L62.14,123.2a10.2,10.2,0,0,1-.32-2.2h0a13.6,13.6,0,0,1-.36,2.2l-3.33,12.58H53l-5.16-19.61h4.83l2.76,13.06a16.36,16.36,0,0,1,.26,2.24h.08a10.93,10.93,0,0,1,.4-2.29l3.55-13h4.73l3.22,13.17a17.7,17.7,0,0,1,.31,2.11H68a15.3,15.3,0,0,1,.29-2.19L71,116.17Z" transform="translate(-47.82 -115.05)"/><path class="cls-1" d="M89.36,130H80.22q.23,3,3.85,3.05A7.5,7.5,0,0,0,88.13,132v3.11a10.61,10.61,0,0,1-5,1A6.52,6.52,0,0,1,75.94,129a7.46,7.46,0,0,1,2-5.52,6.74,6.74,0,0,1,5-2,6.09,6.09,0,0,1,4.74,1.82,7,7,0,0,1,1.68,4.93Zm-4-2.65c0-2-.81-3-2.43-3a2.32,2.32,0,0,0-1.8.86,3.9,3.9,0,0,0-.92,2.15Z" transform="translate(-47.82 -115.05)"/><path class="cls-1" d="M94,115.93l-.42,6H90.87l-.39-6Z" transform="translate(-47.82 -115.05)"/><path class="cls-1" d="M106.47,125.68a3.64,3.64,0,0,0-1.81-.43,2.64,2.64,0,0,0-2.21,1,4.52,4.52,0,0,0-.79,2.8v6.69H97.34v-14h4.32v2.6h.06a3.73,3.73,0,0,1,3.69-2.85,2.72,2.72,0,0,1,1.06.17Z" transform="translate(-47.82 -115.05)"/><path class="cls-1" d="M121,130h-9.13c.14,2,1.43,3.05,3.84,3.05a7.5,7.5,0,0,0,4.06-1.09v3.11a10.54,10.54,0,0,1-5,1,6.51,6.51,0,0,1-7.14-7.12,7.46,7.46,0,0,1,2-5.52,6.74,6.74,0,0,1,5-2,6.11,6.11,0,0,1,4.74,1.82,7,7,0,0,1,1.67,4.93Zm-4-2.65c0-2-.82-3-2.44-3a2.35,2.35,0,0,0-1.8.86,4,4,0,0,0-.92,2.15Z" transform="translate(-47.82 -115.05)"/><path class="cls-1" d="M135.62,134.15h-.05v8.07h-4.32V121.78h4.32v2.11h.05a5.5,5.5,0,0,1,8.7-.59,8,8,0,0,1,1.49,5.08,8.61,8.61,0,0,1-1.73,5.62,5.63,5.63,0,0,1-4.6,2.12A4.35,4.35,0,0,1,135.62,134.15Zm-.12-5.74v1.12a3.57,3.57,0,0,0,.76,2.37,2.49,2.49,0,0,0,2,.91,2.64,2.64,0,0,0,2.29-1.14,5.45,5.45,0,0,0,.82-3.23q0-3.69-2.87-3.69a2.69,2.69,0,0,0-2.17,1A4,4,0,0,0,135.5,128.41Z" transform="translate(-47.82 -115.05)"/><path class="cls-1" d="M160,135.78H155.9v-2h-.06a4.56,4.56,0,0,1-4.17,2.35,4.34,4.34,0,0,1-3.2-1.15,4.15,4.15,0,0,1-1.17-3.09q0-4.07,4.82-4.7l3.8-.51c0-1.53-.82-2.29-2.48-2.29a8.51,8.51,0,0,0-4.76,1.49v-3.26a10.74,10.74,0,0,1,2.47-.82,13.32,13.32,0,0,1,2.85-.35q6,0,6,6Zm-4.07-5.69v-.94l-2.54.33c-1.4.18-2.1.81-2.1,1.9a1.59,1.59,0,0,0,.51,1.21,2,2,0,0,0,1.39.47,2.55,2.55,0,0,0,2-.84A3,3,0,0,0,155.92,130.09Z" transform="translate(-47.82 -115.05)"/><path class="cls-1" d="M172.54,125.68a3.68,3.68,0,0,0-1.82-.43,2.61,2.61,0,0,0-2.2,1,4.46,4.46,0,0,0-.8,2.8v6.69H163.4v-14h4.32v2.6h.06a3.73,3.73,0,0,1,3.69-2.85,2.78,2.78,0,0,1,1.07.17Z" transform="translate(-47.82 -115.05)"/><path class="cls-1" d="M183.82,135.62a6.52,6.52,0,0,1-2.89.5c-3,0-4.57-1.58-4.57-4.74V125h-2.27v-3.19h2.27v-3l4.31-1.23v4.25h3.15V125h-3.15v5.66c0,1.45.58,2.18,1.74,2.18a3,3,0,0,0,1.41-.39Z" transform="translate(-47.82 -115.05)"/><path class="cls-1" d="M199.77,135.78h-4.31V128c0-2.17-.77-3.25-2.32-3.25a2.3,2.3,0,0,0-1.85.86,3.28,3.28,0,0,0-.72,2.19v8h-4.32v-14h4.32V124h.05a4.94,4.94,0,0,1,4.5-2.56q4.65,0,4.65,5.77Z" transform="translate(-47.82 -115.05)"/><path class="cls-1" d="M215.77,130h-9.14q.23,3,3.85,3.05a7.5,7.5,0,0,0,4.06-1.09v3.11a10.61,10.61,0,0,1-5,1,6.52,6.52,0,0,1-7.14-7.12,7.46,7.46,0,0,1,2-5.52,6.74,6.74,0,0,1,5-2,6.08,6.08,0,0,1,4.74,1.82,7,7,0,0,1,1.68,4.93Zm-4-2.65c0-2-.81-3-2.43-3a2.34,2.34,0,0,0-1.8.86,3.9,3.9,0,0,0-.92,2.15Z" transform="translate(-47.82 -115.05)"/><path class="cls-1" d="M227.47,125.68a3.68,3.68,0,0,0-1.82-.43,2.62,2.62,0,0,0-2.2,1,4.46,4.46,0,0,0-.79,2.8v6.69h-4.32v-14h4.32v2.6h.05a3.75,3.75,0,0,1,3.69-2.85,2.78,2.78,0,0,1,1.07.17Z" transform="translate(-47.82 -115.05)"/><path class="cls-1" d="M228.73,135.41v-3.5a9.22,9.22,0,0,0,2.12,1,7.08,7.08,0,0,0,2,.31,4.3,4.3,0,0,0,1.81-.31,1,1,0,0,0,.66-1,.88.88,0,0,0-.3-.68,3,3,0,0,0-.77-.48,8.85,8.85,0,0,0-1-.37,10.51,10.51,0,0,1-1.08-.37,9.19,9.19,0,0,1-1.47-.68,4.15,4.15,0,0,1-1.07-.84,3.23,3.23,0,0,1-.66-1.1,4.45,4.45,0,0,1-.22-1.49,3.87,3.87,0,0,1,.51-2,4.23,4.23,0,0,1,1.37-1.39,6.29,6.29,0,0,1,1.95-.79,10.17,10.17,0,0,1,2.29-.25,13.58,13.58,0,0,1,1.89.14,15.17,15.17,0,0,1,1.89.42v3.33a7.29,7.29,0,0,0-1.76-.71,7.38,7.38,0,0,0-1.84-.24,4.11,4.11,0,0,0-.8.07,2.84,2.84,0,0,0-.66.22,1.28,1.28,0,0,0-.45.37.85.85,0,0,0-.17.51.92.92,0,0,0,.25.66,2.13,2.13,0,0,0,.64.47,8,8,0,0,0,.88.36l1,.32a14.39,14.39,0,0,1,1.56.65,5.06,5.06,0,0,1,1.19.84,3.35,3.35,0,0,1,.77,1.12,4.15,4.15,0,0,1,.26,1.53,4,4,0,0,1-.54,2.13,4.44,4.44,0,0,1-1.43,1.43,6.58,6.58,0,0,1-2.07.81,11.29,11.29,0,0,1-2.42.25A12.6,12.6,0,0,1,228.73,135.41Z" transform="translate(-47.82 -115.05)"/><path class="cls-1" d="M251.87,119.57a2.54,2.54,0,0,1-1.79-.65,2.13,2.13,0,0,1-.69-1.6,2,2,0,0,1,.69-1.58,2.91,2.91,0,0,1,3.59,0,2,2,0,0,1,.69,1.58,2.09,2.09,0,0,1-.69,1.62A2.57,2.57,0,0,1,251.87,119.57ZM254,135.78h-4.32v-14H254Z" transform="translate(-47.82 -115.05)"/><path class="cls-1" d="M271.17,135.78h-4.31V128c0-2.17-.78-3.25-2.33-3.25a2.28,2.28,0,0,0-1.84.86,3.29,3.29,0,0,0-.73,2.19v8h-4.32v-14H262V124H262a4.94,4.94,0,0,1,4.5-2.56q4.65,0,4.65,5.77Z" transform="translate(-47.82 -115.05)"/><path class="cls-1" d="M290.77,135.62a6.5,6.5,0,0,1-2.88.5q-4.58,0-4.57-4.74V125h-2.27v-3.19h2.27v-3l4.31-1.23v4.25h3.14V125h-3.14v5.66c0,1.45.58,2.18,1.73,2.18a3,3,0,0,0,1.41-.39Z" transform="translate(-47.82 -115.05)"/><path class="cls-1" d="M306.64,135.78h-4.3v-8c0-2-.75-3.07-2.25-3.07a2.26,2.26,0,0,0-1.85.86,3.28,3.28,0,0,0-.72,2.19v8H293.2V115.05h4.32v8.81h.06a4.92,4.92,0,0,1,4.31-2.42q4.75,0,4.75,5.74Z" transform="translate(-47.82 -115.05)"/><path class="cls-1" d="M322.64,130h-9.13q.21,3,3.84,3.05a7.5,7.5,0,0,0,4.06-1.09v3.11a10.59,10.59,0,0,1-5.05,1,6.51,6.51,0,0,1-7.13-7.12,7.46,7.46,0,0,1,2-5.52,6.74,6.74,0,0,1,5-2,6.07,6.07,0,0,1,4.73,1.82,7,7,0,0,1,1.68,4.93Zm-4-2.65c0-2-.81-3-2.43-3a2.35,2.35,0,0,0-1.8.86,4,4,0,0,0-.92,2.15Z" transform="translate(-47.82 -115.05)"/><path class="cls-1" d="M48.48,169v-3.5a9.22,9.22,0,0,0,2.12,1,7.08,7.08,0,0,0,2,.31,4.3,4.3,0,0,0,1.81-.31,1,1,0,0,0,.66-1,.88.88,0,0,0-.3-.68,3,3,0,0,0-.77-.48,8.85,8.85,0,0,0-1-.37,10.51,10.51,0,0,1-1.08-.37,9.19,9.19,0,0,1-1.47-.68,4.15,4.15,0,0,1-1.07-.84,3.23,3.23,0,0,1-.66-1.1,4.45,4.45,0,0,1-.22-1.49,3.87,3.87,0,0,1,.51-2,4.23,4.23,0,0,1,1.37-1.39,6.29,6.29,0,0,1,2-.79A10.17,10.17,0,0,1,54.6,155a13.58,13.58,0,0,1,1.89.14,15.17,15.17,0,0,1,1.89.42v3.34a6.94,6.94,0,0,0-1.76-.72,7.44,7.44,0,0,0-1.84-.24,4.11,4.11,0,0,0-.8.07,2.84,2.84,0,0,0-.66.22,1.28,1.28,0,0,0-.45.37.85.85,0,0,0-.17.51.92.92,0,0,0,.25.66,2.13,2.13,0,0,0,.64.47,7.31,7.31,0,0,0,.88.36l1,.32a14.39,14.39,0,0,1,1.56.65,5.06,5.06,0,0,1,1.19.84,3.35,3.35,0,0,1,.77,1.12,4.15,4.15,0,0,1,.26,1.53,4,4,0,0,1-.54,2.13,4.44,4.44,0,0,1-1.43,1.43,6.58,6.58,0,0,1-2.07.81,11.29,11.29,0,0,1-2.42.25A12.6,12.6,0,0,1,48.48,169Z" transform="translate(-47.82 -115.05)"/><path class="cls-1" d="M75,169.38h-4.3v-2.13h-.07a4.88,4.88,0,0,1-4.28,2.47c-3.24,0-4.87-2-4.87-5.89v-8.45H65.8v8.07c0,2,.78,3,2.35,3A2.32,2.32,0,0,0,70,165.6a3.26,3.26,0,0,0,.7-2.21v-8H75Z" transform="translate(-47.82 -115.05)"/><path class="cls-1" d="M89.26,168.87a8.46,8.46,0,0,1-4.22.85,7.16,7.16,0,0,1-5.23-1.95,6.77,6.77,0,0,1-2-5.05A7.41,7.41,0,0,1,80,157.1,7.86,7.86,0,0,1,85.68,155a7.44,7.44,0,0,1,3.58.65v3.67a4.88,4.88,0,0,0-3-1,4,4,0,0,0-2.95,1.08,4.09,4.09,0,0,0-1.08,3,3.94,3.94,0,0,0,1,2.91,3.79,3.79,0,0,0,2.85,1.06,5.65,5.65,0,0,0,3.16-1Z" transform="translate(-47.82 -115.05)"/><path class="cls-1" d="M102.7,168.87a8.48,8.48,0,0,1-4.22.85,7.16,7.16,0,0,1-5.23-1.95,6.77,6.77,0,0,1-2-5.05,7.41,7.41,0,0,1,2.14-5.62A7.86,7.86,0,0,1,99.12,155a7.44,7.44,0,0,1,3.58.65v3.67a4.88,4.88,0,0,0-3-1,4,4,0,0,0-3,1.08,4.09,4.09,0,0,0-1.08,3,4,4,0,0,0,1,2.91,3.83,3.83,0,0,0,2.86,1.06,5.65,5.65,0,0,0,3.16-1Z" transform="translate(-47.82 -115.05)"/><path class="cls-1" d="M118.11,163.61H109q.21,3,3.84,3a7.5,7.5,0,0,0,4.06-1.09v3.11a10.61,10.61,0,0,1-5,1,6.51,6.51,0,0,1-7.13-7.12,7.46,7.46,0,0,1,2-5.52,6.74,6.74,0,0,1,5-2,6.1,6.1,0,0,1,4.73,1.82,7,7,0,0,1,1.68,4.93Zm-4-2.65c0-2-.81-3-2.43-3a2.35,2.35,0,0,0-1.8.86A4,4,0,0,0,109,161Z" transform="translate(-47.82 -115.05)"/><path class="cls-1" d="M119.76,169v-3.5a9.1,9.1,0,0,0,2.13,1,7,7,0,0,0,2,.31,4.27,4.27,0,0,0,1.81-.31,1,1,0,0,0,.67-1,.88.88,0,0,0-.3-.68,3.06,3.06,0,0,0-.78-.48,8.23,8.23,0,0,0-1-.37c-.37-.11-.73-.23-1.08-.37a9.19,9.19,0,0,1-1.47-.68,4.33,4.33,0,0,1-1.07-.84A3.37,3.37,0,0,1,120,161a4.44,4.44,0,0,1-.23-1.49,3.79,3.79,0,0,1,.52-2,4.2,4.2,0,0,1,1.36-1.39,6.25,6.25,0,0,1,2-.79,10,10,0,0,1,2.29-.25,13.33,13.33,0,0,1,1.88.14,15.17,15.17,0,0,1,1.89.42v3.34a6.79,6.79,0,0,0-1.76-.72,7.3,7.3,0,0,0-1.83-.24,4,4,0,0,0-.8.07,2.77,2.77,0,0,0-.67.22,1.28,1.28,0,0,0-.45.37.84.84,0,0,0-.16.51,1,1,0,0,0,.24.66,2.18,2.18,0,0,0,.65.47,6.69,6.69,0,0,0,.88.36l1,.32a12.88,12.88,0,0,1,1.56.65,5.13,5.13,0,0,1,1.2.84,3.32,3.32,0,0,1,.76,1.12,4,4,0,0,1,.27,1.53,4,4,0,0,1-.54,2.13,4.37,4.37,0,0,1-1.44,1.43,6.43,6.43,0,0,1-2.06.81,11.38,11.38,0,0,1-2.43.25A12.64,12.64,0,0,1,119.76,169Z" transform="translate(-47.82 -115.05)"/><path class="cls-1" d="M132.08,169v-3.5a9.1,9.1,0,0,0,2.13,1,7,7,0,0,0,2,.31,4.27,4.27,0,0,0,1.81-.31,1,1,0,0,0,.66-1,.88.88,0,0,0-.3-.68,2.82,2.82,0,0,0-.77-.48,8.23,8.23,0,0,0-1-.37c-.37-.11-.73-.23-1.08-.37a9.19,9.19,0,0,1-1.47-.68,4.33,4.33,0,0,1-1.07-.84,3.37,3.37,0,0,1-.65-1.1,4.44,4.44,0,0,1-.23-1.49,3.87,3.87,0,0,1,.51-2,4.33,4.33,0,0,1,1.37-1.39,6.25,6.25,0,0,1,2-.79,10,10,0,0,1,2.29-.25,13.44,13.44,0,0,1,1.88.14,15.17,15.17,0,0,1,1.89.42v3.34a6.79,6.79,0,0,0-1.76-.72,7.32,7.32,0,0,0-1.84-.24,4.11,4.11,0,0,0-.8.07,2.84,2.84,0,0,0-.66.22,1.28,1.28,0,0,0-.45.37.84.84,0,0,0-.16.51,1,1,0,0,0,.24.66,2.26,2.26,0,0,0,.64.47,7.48,7.48,0,0,0,.89.36l1,.32a14.39,14.39,0,0,1,1.56.65,5.06,5.06,0,0,1,1.19.84,3.21,3.21,0,0,1,.77,1.12,4,4,0,0,1,.27,1.53,4,4,0,0,1-.54,2.13,4.37,4.37,0,0,1-1.44,1.43,6.52,6.52,0,0,1-2.06.81,11.38,11.38,0,0,1-2.43.25A12.6,12.6,0,0,1,132.08,169Z" transform="translate(-47.82 -115.05)"/><path class="cls-1" d="M159.71,169.72a7.51,7.51,0,0,1-5.5-2,8.13,8.13,0,0,1,.07-10.76,7.85,7.85,0,0,1,5.62-2,7.42,7.42,0,0,1,5.47,2,7,7,0,0,1,2,5.19,7.42,7.42,0,0,1-2,5.51A7.6,7.6,0,0,1,159.71,169.72Zm.11-11.37a2.89,2.89,0,0,0-2.38,1.05,4.68,4.68,0,0,0-.85,3q0,4,3.26,4,3.1,0,3.1-4.14Q163,158.35,159.82,158.35Z" transform="translate(-47.82 -115.05)"/><path class="cls-1" d="M178.87,152a4.36,4.36,0,0,0-1.6-.33c-1.39,0-2.08.76-2.08,2.26v1.49h3.2v3.19h-3.2v10.81h-4.31V158.57h-2.35v-3.19h2.35v-1.74a5,5,0,0,1,1.56-3.85,5.92,5.92,0,0,1,4.24-1.46,7.61,7.61,0,0,1,2.19.27Z" transform="translate(-47.82 -115.05)"/><path class="cls-1" d="M201.52,155.38l-5.69,15.12q-2,5.46-6.18,5.46a7.81,7.81,0,0,1-2.58-.36v-3.44a3.69,3.69,0,0,0,1.87.5,2.35,2.35,0,0,0,2.33-1.57l.73-1.74-5.68-14h4.78l2.61,8.52a10.36,10.36,0,0,1,.39,1.87h.05a12.45,12.45,0,0,1,.45-1.84l2.64-8.55Z" transform="translate(-47.82 -115.05)"/><path class="cls-1" d="M209.66,169.72a7.53,7.53,0,0,1-5.51-2,8.12,8.12,0,0,1,.08-10.76,7.84,7.84,0,0,1,5.62-2,7.45,7.45,0,0,1,5.47,2,7,7,0,0,1,2,5.19,7.39,7.39,0,0,1-2.05,5.51A7.58,7.58,0,0,1,209.66,169.72Zm.1-11.37a2.86,2.86,0,0,0-2.37,1.05,4.62,4.62,0,0,0-.85,3q0,4,3.25,4t3.11-4.14Q212.9,158.35,209.76,158.35Z" transform="translate(-47.82 -115.05)"/><path class="cls-1" d="M233.4,169.38h-4.3v-2.13H229a4.88,4.88,0,0,1-4.28,2.47q-4.87,0-4.87-5.89v-8.45h4.31v8.07c0,2,.78,3,2.35,3a2.35,2.35,0,0,0,1.86-.81,3.31,3.31,0,0,0,.7-2.21v-8h4.3Z" transform="translate(-47.82 -115.05)"/><path class="cls-1" d="M246.17,159.28a3.66,3.66,0,0,0-1.82-.43,2.63,2.63,0,0,0-2.2,1,4.46,4.46,0,0,0-.79,2.8v6.69H237v-14h4.32V158h.06a3.73,3.73,0,0,1,3.69-2.85,2.72,2.72,0,0,1,1.06.17Z" transform="translate(-47.82 -115.05)"/><path class="cls-1" d="M264.37,169.22a6.5,6.5,0,0,1-2.88.5q-4.58,0-4.57-4.74v-6.41h-2.27v-3.19h2.27v-3l4.31-1.23v4.25h3.14v3.19h-3.14v5.66c0,1.45.57,2.18,1.73,2.18a3,3,0,0,0,1.41-.39Z" transform="translate(-47.82 -115.05)"/><path class="cls-1" d="M279.27,163.61h-9.13q.23,3,3.84,3a7.47,7.47,0,0,0,4.06-1.09v3.11a10.54,10.54,0,0,1-5,1,6.51,6.51,0,0,1-7.14-7.12,7.5,7.5,0,0,1,2-5.52,6.74,6.74,0,0,1,5-2,6.14,6.14,0,0,1,4.74,1.82,7,7,0,0,1,1.67,4.93Zm-4-2.65c0-2-.81-3-2.44-3a2.32,2.32,0,0,0-1.79.86,3.91,3.91,0,0,0-.93,2.15Z" transform="translate(-47.82 -115.05)"/><path class="cls-1" d="M293.49,169.38H289.4v-2h0a4.56,4.56,0,0,1-4.17,2.35,4.37,4.37,0,0,1-3.21-1.15,4.15,4.15,0,0,1-1.17-3.09q0-4.06,4.83-4.7l3.8-.51c0-1.53-.83-2.29-2.49-2.29a8.54,8.54,0,0,0-4.76,1.49v-3.26a11.08,11.08,0,0,1,2.47-.82,13.47,13.47,0,0,1,2.85-.35c4,0,6,2,6,6Zm-4.06-5.69v-.94l-2.54.33c-1.41.18-2.11.81-2.11,1.9a1.59,1.59,0,0,0,.51,1.21,2,2,0,0,0,1.39.47,2.59,2.59,0,0,0,2-.84A3,3,0,0,0,289.43,163.69Z" transform="translate(-47.82 -115.05)"/><path class="cls-1" d="M319.14,169.38h-4.31v-8c0-2-.74-3.05-2.24-3.05a2.07,2.07,0,0,0-1.74.91,3.83,3.83,0,0,0-.67,2.29v7.83h-4.32v-8.07c0-2-.73-3-2.2-3a2.11,2.11,0,0,0-1.77.87,3.89,3.89,0,0,0-.66,2.38v7.78h-4.32v-14h4.32v2.19h0a5.24,5.24,0,0,1,1.88-1.83,5.17,5.17,0,0,1,2.65-.7,4,4,0,0,1,4.06,2.61,5.18,5.18,0,0,1,4.7-2.61q4.57,0,4.57,5.63Z" transform="translate(-47.82 -115.05)"/><path class="cls-1" d="M324.49,169.72a2.53,2.53,0,0,1-1.78-.65,2.1,2.1,0,0,1-.71-1.62,2,2,0,0,1,.73-1.61,2.69,2.69,0,0,1,1.82-.63,2.59,2.59,0,0,1,1.82.64,2.2,2.2,0,0,1,0,3.24A2.72,2.72,0,0,1,324.49,169.72Z" transform="translate(-47.82 -115.05)"/></svg>