<svg height="400" width="410" viewBox="0 0 410 77" fill="none" xmlns="http://www.w3.org/2000/svg" ref="svgRef"
    aria-labelledby="Selfless">
    <title id="Selfless"/>
<path id="path" d="M25.9648 76.3C41.2648 76.3 50.2648 67.5 50.2648 56.5C50.2648 28.2 11.4648 41.5 11.4648 22.4C11.4648 16.6 15.7648 11.1 25.6648 11.1C35.1648 11.1 40.4648 16 40.4648 24H48.7648C48.7648 9.5 36.3648 3.7 25.7648 3.7C11.6648 3.7 3.36484 12.4 3.36484 22.4C3.36484 50.4 42.0648 35.1 42.0648 57C42.0648 64.3 35.4648 68.8 26.2648 68.8C15.6648 68.8 9.06484 62.3 9.06484 54.2H0.964844C0.964844 67.2 12.0648 76.3 25.9648 76.3Z"/>
 <path id="path2" d="M88.9539 76.3C100.954 76.3 109.554 69.4 112.454 59.7L104.754 57.9C103.054 65.1 96.3539 69.3 89.0539 69.3C78.2539 69.3 71.4539 62.8 71.3539 51.2H113.154V48.3C113.154 32.7 104.154 21.7 88.4539 21.7C74.6539 21.7 63.2539 32.6 63.2539 49.2C63.2539 65.2 73.1539 76.3 88.9539 76.3ZM71.5539 44.8C72.1539 35 79.9539 28.8 88.4539 28.8C97.0539 28.8 104.554 34 105.054 44.8H71.5539Z"/>
  <path id="path3" d="M124.59 75H153.49V68.2H142.99V0H124.59V6.8H135.09V68.2H124.59V75Z"/>
  <path id="path4" d="M172.757 75H180.657V29.7H195.857V23H180.657V14.9C180.657 9.30001 182.957 6.9 188.457 6.9H195.457V0H188.557C179.057 0 172.757 4.3 172.757 14.8V23H162.957V29.7H172.757V75Z"/>
  <path id="path5" d="M209.887 75H238.787V68.2H228.287V0H209.887V6.8H220.387V68.2H209.887V75Z"/>
 <path id="path6" d="M274.977 76.3C286.977 76.3 295.577 69.4 298.477 59.7L290.777 57.9C289.077 65.1 282.377 69.3 275.077 69.3C264.277 69.3 257.477 62.8 257.377 51.2H299.177V48.3C299.177 32.7 290.177 21.7 274.477 21.7C260.677 21.7 249.277 32.6 249.277 49.2C249.277 65.2 259.177 76.3 274.977 76.3ZM257.577 44.8C258.177 35 265.977 28.8 274.477 28.8C283.077 28.8 290.577 34 291.077 44.8H257.577Z"/>
  <path id="path7" d="M333.341 76.3C345.441 76.3 353.541 69.7 353.541 59.9C353.541 38.4 322.341 49.4 322.341 36.2C322.341 31.7 326.541 28.5 333.041 28.5C339.841 28.5 344.841 32.2 345.541 38.3L352.441 36.3C351.241 26.9 342.541 21.7 333.541 21.7C322.641 21.7 314.741 27.4 314.741 36.2C314.741 56.8 345.841 45.7 345.841 60.3C345.841 65.6 341.541 69.4 333.741 69.4C325.841 69.4 320.941 65.8 320.341 58.8L313.141 60.6C314.341 69.9 321.641 76.3 333.341 76.3Z"/>
  <path id="path8" d="M389.27 76.3C401.37 76.3 409.47 69.7 409.47 59.9C409.47 38.4 378.27 49.4 378.27 36.2C378.27 31.7 382.47 28.5 388.97 28.5C395.77 28.5 400.77 32.2 401.47 38.3L408.37 36.3C407.17 26.9 398.47 21.7 389.47 21.7C378.57 21.7 370.67 27.4 370.67 36.2C370.67 56.8 401.77 45.7 401.77 60.3C401.77 65.6 397.47 69.4 389.67 69.4C381.77 69.4 376.87 65.8 376.27 58.8L369.07 60.6C370.27 69.9 377.57 76.3 389.27 76.3Z"/>
</svg>