<svg height="75" width="371" viewBox="0 0 371 75" fill="none" xmlns="http://www.w3.org/2000/svg" ref="svgRef"
    aria-labelledby="Flexibility">
    <title id="Flexibility"/>
<path id="path" d="M21.0906 74.2C33.1906 74.2 41.2906 67.6 41.2906 57.8C41.2906 36.3 10.0906 47.3 10.0906 34.1C10.0906 29.6 14.2906 26.4 20.7906 26.4C27.5906 26.4 32.5906 30.1 33.2906 36.2L40.1906 34.2C38.9906 24.8 30.2906 19.6 21.2906 19.6C10.3906 19.6 2.49063 25.3 2.49063 34.1C2.49063 54.7 33.5906 43.6 33.5906 58.2C33.5906 63.5 29.2906 67.3 21.4906 67.3C13.5906 67.3 8.69063 63.7 8.09063 56.7L0.890625 58.5C2.09063 67.8 9.39063 74.2 21.0906 74.2Z"/>
 <path id="path2" d="M81.5203 74.2C93.5203 74.2 102.12 67.3 105.02 57.6L97.3203 55.8C95.6203 63 88.9203 67.2 81.6203 67.2C70.8203 67.2 64.0203 60.7 63.9203 49.1H105.72V46.2C105.72 30.6 96.7203 19.6 81.0203 19.6C67.2203 19.6 55.8203 30.5 55.8203 47.1C55.8203 63.1 65.7203 74.2 81.5203 74.2ZM64.1203 42.7C64.7203 32.9 72.5203 26.7 81.0203 26.7C89.6203 26.7 97.1203 31.9 97.6203 42.7H64.1203Z"/>
  <path id="path3" d="M122.684 72.9H130.584V45.1C130.584 35.2 134.484 27.5 143.984 27.5H148.684V19.6H145.284C137.684 19.6 132.584 25.2 131.084 29.6H130.484V20.9H122.684V72.9Z"/>
  <path id="path4" d="M178.048 72.9H188.448L207.748 20.9H199.048L183.448 65.5H182.848L167.148 20.9H158.648L178.048 72.9Z"/>
  <path id="path5" d="M233.427 11.5C236.827 11.5 239.227 8.99999 239.227 5.69999C239.227 2.49999 236.827 0 233.427 0C230.127 0 227.727 2.49999 227.727 5.69999C227.727 8.99999 230.127 11.5 233.427 11.5ZM229.527 72.9H237.427V20.9H219.727V27.6H229.527V72.9Z"/>
 <path id="path6" d="M282.899 74.2C294.199 74.2 304.299 67.4 307.099 55.8L299.299 54C297.899 61.8 291.299 67 283.199 67C272.299 67 264.399 58.6 264.399 46.9C264.399 35.6 271.899 26.8 282.999 26.8C291.099 26.8 297.699 32 299.099 39.8L306.899 38C304.099 26.4 294.099 19.6 282.799 19.6C267.499 19.6 256.199 31.5 256.199 46.9C256.199 62.3 267.199 74.2 282.899 74.2Z"/>
  <path id="path7" d="M345.837 74.2C357.837 74.2 366.437 67.3 369.337 57.6L361.637 55.8C359.937 63 353.237 67.2 345.937 67.2C335.137 67.2 328.337 60.7 328.237 49.1H370.037V46.2C370.037 30.6 361.037 19.6 345.337 19.6C331.537 19.6 320.137 30.5 320.137 47.1C320.137 63.1 330.037 74.2 345.837 74.2ZM328.437 42.7C329.037 32.9 336.837 26.7 345.337 26.7C353.937 26.7 361.437 31.9 361.937 42.7H328.437Z"/>     
</svg>
