<svg height="400" width="410" viewBox="0 0 443 95" fill="none" xmlns="http://www.w3.org/2000/svg" ref="svgRef"
    aria-labelledby="Strategy">
    <title id="Strategy"/>
<path id="path" d="M25.5 73.3002C40.8 73.3002 49.8 64.5002 49.8 53.5002C49.8 25.2002 11 38.5002 11 19.4002C11 13.6002 15.3 8.1002 25.2 8.1002C34.7 8.1002 40 13.0002 40 21.0002H48.3C48.3 6.5002 35.9 0.700195 25.3 0.700195C11.2 0.700195 2.9 9.4002 2.9 19.4002C2.9 47.4002 41.6 32.1002 41.6 54.0002C41.6 61.3002 35 65.8002 25.8 65.8002C15.2 65.8002 8.6 59.3002 8.6 51.2002H0.5C0.5 64.2002 11.6 73.3002 25.5 73.3002Z"/>
 <path id="path2" d="M87.3891 72.0002H94.7891V65.1002H87.2891C81.7891 65.1002 79.4891 62.7002 79.4891 57.1002V26.7002H95.4891V20.0002H79.4891V4.9002H72.0891V20.0002H61.7891V26.7002H71.5891V57.2002C71.5891 67.7002 77.8891 72.0002 87.3891 72.0002Z"/>
  <path id="path3" d="M112.953 72.0002H120.853V44.2002C120.853 34.3002 124.753 26.6002 134.253 26.6002H138.953V18.7002H135.553C127.953 18.7002 122.853 24.3002 121.353 28.7002H120.753V20.0002H112.953V72.0002Z"/>
  <path id="path4" d="M174.365 73.3002C185.665 73.3002 190.465 65.9002 191.765 63.8002H192.365V64.3002C192.465 68.8002 195.665 72.0002 199.965 72.0002H205.065V65.0002H202.665C201.065 65.0002 200.065 64.2002 200.065 62.6002V20.0002H192.065V28.4002H191.465C189.965 25.7002 184.565 18.7002 173.765 18.7002C158.965 18.7002 148.965 30.1002 148.965 46.1002C148.965 62.0002 159.465 73.3002 174.365 73.3002ZM174.765 66.2002C164.765 66.2002 157.065 58.3002 157.065 46.2002C157.065 34.3002 164.465 25.9002 174.665 25.9002C184.365 25.9002 192.365 33.3002 192.365 46.2002C192.365 57.1002 185.665 66.2002 174.765 66.2002Z"/>
  <path id="path5" d="M243.655 72.0002H251.055V65.1002H243.555C238.055 65.1002 235.755 62.7002 235.755 57.1002V26.7002H251.755V20.0002H235.755V4.9002H228.355V20.0002H218.055V26.7002H227.855V57.2002C227.855 67.7002 234.155 72.0002 243.655 72.0002Z"/>
 <path id="path6" d="M290.919 73.3002C302.919 73.3002 311.519 66.4002 314.419 56.7002L306.719 54.9002C305.019 62.1002 298.319 66.3002 291.019 66.3002C280.219 66.3002 273.419 59.8002 273.319 48.2002H315.119V45.3002C315.119 29.7002 306.119 18.7002 290.419 18.7002C276.619 18.7002 265.219 29.6002 265.219 46.2002C265.219 62.2002 275.119 73.3002 290.919 73.3002ZM273.519 41.8002C274.119 32.0002 281.919 25.8002 290.419 25.8002C299.019 25.8002 306.519 31.0002 307.019 41.8002H273.519Z"/>
  <path id="path7" d="M340.882 95.0002H363.382C372.882 95.0002 379.182 90.7002 379.182 80.2002V20.0002H371.582V28.2002H370.982C369.682 26.3002 364.782 18.7002 353.482 18.7002C338.682 18.7002 328.082 30.0002 328.082 45.9002C328.082 62.0002 338.182 73.3002 352.882 73.3002C363.782 73.3002 368.982 66.8002 370.682 63.6002H371.282V79.4002C371.282 85.0002 368.982 87.7002 363.482 87.7002H340.882V95.0002ZM353.782 66.1002C343.582 66.1002 336.182 57.8002 336.182 45.9002C336.182 33.7002 343.982 25.9002 353.982 25.9002C364.782 25.9002 371.582 35.0002 371.582 45.9002C371.582 58.7002 363.582 66.1002 353.782 66.1002Z"/>
  <path id="path8" d="M396.145 95.0002H401.645C410.045 95.0002 414.845 92.0002 417.445 85.2002L442.745 20.0002H433.845L417.745 64.4002H417.145L401.945 20.0002H393.145L412.245 72.0002H414.345L410.645 81.7002C409.045 85.8002 406.745 87.8002 401.945 87.8002H396.145V95.0002Z"/>
</svg>