<svg viewBox="0 0 706 93" fill="none" xmlns="http://www.w3.org/2000/svg" ref="svgRef"
    aria-labelledby="Transparency">
    <title id="Transparency"/>
<path id="path" d="M20.4 70H28.5V7.4H48.9V0H0V7.4H20.4V70Z"/>
 <path id="path2" d="M63.8828 70H71.7828V42.2C71.7828 32.3 75.6828 24.6 85.1828 24.6H89.8828V16.7H86.4828C78.8828 16.7 73.7828 22.3 72.2828 26.7H71.6828V18H63.8828V70Z"/>
  <path id="path3" d="M125.295 71.3C136.595 71.3 141.395 63.9 142.695 61.8H143.295V62.3C143.395 66.8 146.595 70 150.895 70H155.995V63H153.595C151.995 63 150.995 62.2 150.995 60.6V18H142.995V26.4H142.395C140.895 23.7 135.495 16.7 124.695 16.7C109.895 16.7 99.8945 28.1 99.8945 44.1C99.8945 60 110.395 71.3 125.295 71.3ZM125.695 64.2C115.695 64.2 107.995 56.3 107.995 44.2C107.995 32.3 115.395 23.9 125.595 23.9C135.295 23.9 143.295 31.3 143.295 44.2C143.295 55.1 136.595 64.2 125.695 64.2Z"/>
  <path id="path4" d="M173.984 70H181.884V39C181.884 30.4 188.284 24.1 196.484 24.1C203.784 24.1 209.884 29.5 209.884 37.8V70H217.784V37.3C217.784 25.8 210.484 16.7 198.384 16.7C190.284 16.7 184.684 20.9 182.484 25.6H181.884V18H173.984V70Z"/>
  <path id="path5" d="M255.024 71.3C267.124 71.3 275.224 64.7 275.224 54.9C275.224 33.4 244.024 44.4 244.024 31.2C244.024 26.7 248.224 23.5 254.724 23.5C261.524 23.5 266.524 27.2 267.224 33.3L274.124 31.3C272.924 21.9 264.224 16.7 255.224 16.7C244.324 16.7 236.424 22.4 236.424 31.2C236.424 51.8 267.524 40.7 267.524 55.3C267.524 60.6 263.224 64.4 255.424 64.4C247.524 64.4 242.624 60.8 242.024 53.8L234.824 55.6C236.024 64.9 243.324 71.3 255.024 71.3Z"/>
 <path id="path6" d="M293.754 93H301.654V61.6H302.254C303.954 64.8 309.154 71.3 320.054 71.3C334.754 71.3 344.854 60 344.854 43.9C344.854 28 334.254 16.7 319.454 16.7C308.154 16.7 303.254 24.3 301.954 26.2H301.354V18H293.754V93ZM319.154 64.1C309.354 64.1 301.354 56.7 301.354 43.9C301.354 33 308.154 23.9 318.954 23.9C328.954 23.9 336.754 31.7 336.754 43.9C336.754 55.8 329.354 64.1 319.154 64.1Z"/>
  <path id="path7" d="M383.291 71.3C394.591 71.3 399.391 63.9 400.691 61.8H401.291V62.3C401.391 66.8 404.591 70 408.891 70H413.991V63H411.591C409.991 63 408.991 62.2 408.991 60.6V18H400.991V26.4H400.391C398.891 23.7 393.491 16.7 382.691 16.7C367.891 16.7 357.891 28.1 357.891 44.1C357.891 60 368.391 71.3 383.291 71.3ZM383.691 64.2C373.691 64.2 365.991 56.3 365.991 44.2C365.991 32.3 373.391 23.9 383.591 23.9C393.291 23.9 401.291 31.3 401.291 44.2C401.291 55.1 394.591 64.2 383.691 64.2Z"/>
  <path id="path8" d="M431.98 70H439.88V42.2C439.88 32.3 443.78 24.6 453.28 24.6H457.98V16.7H454.58C446.98 16.7 441.88 22.3 440.38 26.7H439.78V18H431.98V70Z"/>
   <path id="path9" d="M493.692 71.3C505.692 71.3 514.292 64.4 517.192 54.7L509.492 52.9C507.792 60.1 501.092 64.3 493.792 64.3C482.992 64.3 476.192 57.8 476.092 46.2H517.892V43.3C517.892 27.7 508.892 16.7 493.192 16.7C479.392 16.7 467.992 27.6 467.992 44.2C467.992 60.2 477.892 71.3 493.692 71.3ZM476.292 39.8C476.892 30 484.692 23.8 493.192 23.8C501.792 23.8 509.292 29 509.792 39.8H476.292Z"/>
 <path id="path10" d="M534.855 70H542.755V39C542.755 30.4 549.155 24.1 557.355 24.1C564.655 24.1 570.755 29.5 570.755 37.8V70H578.655V37.3C578.655 25.8 571.355 16.7 559.255 16.7C551.155 16.7 545.555 20.9 543.355 25.6H542.755V18H534.855V70Z"/>
  <path id="path11" d="M621.395 71.3C632.695 71.3 642.795 64.5 645.595 52.9L637.795 51.1C636.395 58.9 629.795 64.1 621.695 64.1C610.795 64.1 602.895 55.7 602.895 44C602.895 32.7 610.395 23.9 621.495 23.9C629.595 23.9 636.195 29.1 637.595 36.9L645.395 35.1C642.595 23.5 632.595 16.7 621.295 16.7C605.995 16.7 594.695 28.6 594.695 44C594.695 59.4 605.695 71.3 621.395 71.3Z"/>
  <path id="path12" d="M658.656 93H664.156C672.556 93 677.356 90 679.956 83.2L705.256 18H696.356L680.256 62.4H679.656L664.456 18H655.656L674.756 70H676.856L673.156 79.7C671.556 83.8 669.256 85.8 664.456 85.8H658.656V93Z"/>
</svg>