<svg id="Layer_1" data-name="Layer 1" xmlns="http://www.w3.org/2000/svg" viewBox="0 0 324 110" aria-labelledby="We are led by veterans who decided to continue serving their country in a new uniform"><defs><style>.cls-1{}</style></defs><path class="cls-1" d="M70.49,116l-4.26,16.11h-4l-2.67-10.33a8.13,8.13,0,0,1-.26-1.81h-.05a10.08,10.08,0,0,1-.29,1.81L56.2,132.08H52L47.78,116h4L54,126.7a11.9,11.9,0,0,1,.21,1.84h.07a8.85,8.85,0,0,1,.33-1.89L57.54,116h3.88l2.64,10.82a12,12,0,0,1,.26,1.73h0a11.41,11.41,0,0,1,.24-1.8L66.82,116Z" transform="translate(-47.75 -114.78)"/><path class="cls-1" d="M81.9,127.34H74.39c.12,1.67,1.18,2.5,3.16,2.5a6.21,6.21,0,0,0,3.33-.89v2.56a8.73,8.73,0,0,1-4.14.85,5.35,5.35,0,0,1-5.86-5.85A6.16,6.16,0,0,1,72.54,122a5.56,5.56,0,0,1,4.09-1.67,5,5,0,0,1,3.89,1.49,5.76,5.76,0,0,1,1.38,4.06Zm-3.3-2.18c0-1.65-.66-2.47-2-2.47a1.91,1.91,0,0,0-1.48.71,3.18,3.18,0,0,0-.76,1.76Z" transform="translate(-47.75 -114.78)"/><path class="cls-1" d="M85.74,115.77l-.35,5H83.14l-.32-5Z" transform="translate(-47.75 -114.78)"/><path class="cls-1" d="M96,123.78a3.13,3.13,0,0,0-1.5-.35,2.15,2.15,0,0,0-1.81.85,3.71,3.71,0,0,0-.65,2.31v5.49H88.45v-11.5H92v2.13h0a3.07,3.07,0,0,1,3-2.33,2.33,2.33,0,0,1,.88.13Z" transform="translate(-47.75 -114.78)"/><path class="cls-1" d="M107.85,127.34h-7.5c.12,1.67,1.17,2.5,3.15,2.5a6.24,6.24,0,0,0,3.34-.89v2.56a8.77,8.77,0,0,1-4.15.85,5.35,5.35,0,0,1-5.86-5.85A6.2,6.2,0,0,1,98.49,122a5.56,5.56,0,0,1,4.09-1.67,5,5,0,0,1,3.89,1.49,5.76,5.76,0,0,1,1.38,4.06Zm-3.29-2.18c0-1.65-.67-2.47-2-2.47a1.93,1.93,0,0,0-1.48.71,3.25,3.25,0,0,0-.76,1.76Z" transform="translate(-47.75 -114.78)"/><path class="cls-1" d="M119.85,132.08h-3.54v-17h3.54Z" transform="translate(-47.75 -114.78)"/><path class="cls-1" d="M133.17,127.34h-7.5c.12,1.67,1.17,2.5,3.16,2.5a6.23,6.23,0,0,0,3.33-.89v2.56a8.73,8.73,0,0,1-4.14.85,5.35,5.35,0,0,1-5.86-5.85,6.16,6.16,0,0,1,1.66-4.54,5.56,5.56,0,0,1,4.09-1.67,5.06,5.06,0,0,1,3.89,1.49,5.75,5.75,0,0,1,1.37,4.06Zm-3.29-2.18c0-1.65-.66-2.47-2-2.47a1.91,1.91,0,0,0-1.47.71,3.18,3.18,0,0,0-.76,1.76Z" transform="translate(-47.75 -114.78)"/><path class="cls-1" d="M146.54,132.08H143V130.5h-.05a4,4,0,0,1-3.56,1.86,4.39,4.39,0,0,1-3.47-1.52,6.34,6.34,0,0,1-1.31-4.25,6.83,6.83,0,0,1,1.45-4.57,4.7,4.7,0,0,1,3.79-1.72,3.22,3.22,0,0,1,3.1,1.59H143v-6.84h3.55Zm-3.48-5.59v-.87a2.72,2.72,0,0,0-.65-1.86,2.31,2.31,0,0,0-3.54.18,4.34,4.34,0,0,0-.66,2.55,3.67,3.67,0,0,0,.64,2.33,2.09,2.09,0,0,0,1.77.82,2.16,2.16,0,0,0,1.76-.86A3.63,3.63,0,0,0,143.06,126.49Z" transform="translate(-47.75 -114.78)"/><path class="cls-1" d="M159.46,130.74h0v1.34h-3.55v-17h3.55v7.26h0a4.22,4.22,0,0,1,3.74-2,4.1,4.1,0,0,1,3.43,1.53,6.57,6.57,0,0,1,1.2,4.17,7.17,7.17,0,0,1-1.4,4.62,4.58,4.58,0,0,1-3.75,1.74A3.63,3.63,0,0,1,159.46,130.74Zm-.1-4.85v1.18a2.71,2.71,0,0,0,.64,1.84,2.09,2.09,0,0,0,1.64.73,2.16,2.16,0,0,0,1.88-.94,4.47,4.47,0,0,0,.67-2.65,3.58,3.58,0,0,0-.61-2.23,2.06,2.06,0,0,0-1.75-.8,2.23,2.23,0,0,0-1.76.79A3.05,3.05,0,0,0,159.36,125.89Z" transform="translate(-47.75 -114.78)"/><path class="cls-1" d="M181.08,120.58,176.41,133q-1.68,4.49-5.08,4.48a6.65,6.65,0,0,1-2.12-.29v-2.83a3,3,0,0,0,1.54.41,1.93,1.93,0,0,0,1.91-1.29l.61-1.42-4.68-11.48h3.94l2.14,7a8.07,8.07,0,0,1,.31,1.53H175a10.91,10.91,0,0,1,.37-1.51l2.17-7Z" transform="translate(-47.75 -114.78)"/><path class="cls-1" d="M188.1,131.78V128.9a8.17,8.17,0,0,0,1.75.79,5.87,5.87,0,0,0,1.64.26,3.56,3.56,0,0,0,1.49-.26.84.84,0,0,0,.55-.79.75.75,0,0,0-.25-.56,2.26,2.26,0,0,0-.63-.39,6.52,6.52,0,0,0-.85-.31c-.31-.09-.61-.19-.89-.3a8.06,8.06,0,0,1-1.21-.56,3,3,0,0,1-.87-.69,2.53,2.53,0,0,1-.54-.91,3.44,3.44,0,0,1-.19-1.22,3.15,3.15,0,0,1,.42-1.66,3.33,3.33,0,0,1,1.13-1.14,4.77,4.77,0,0,1,1.6-.65,8.33,8.33,0,0,1,1.88-.21,10.21,10.21,0,0,1,1.55.12,11.57,11.57,0,0,1,1.55.34v2.74a5.67,5.67,0,0,0-1.44-.59,6.15,6.15,0,0,0-1.51-.2,3.52,3.52,0,0,0-.66.06,3.42,3.42,0,0,0-.54.18,1,1,0,0,0-.37.31.68.68,0,0,0-.14.42.76.76,0,0,0,.21.54,1.77,1.77,0,0,0,.52.39,7.4,7.4,0,0,0,.73.29l.79.26a12,12,0,0,1,1.28.54,4,4,0,0,1,1,.69,2.56,2.56,0,0,1,.63.92,3.17,3.17,0,0,1,.22,1.25,3.32,3.32,0,0,1-.44,1.75,3.6,3.6,0,0,1-1.18,1.18,5.48,5.48,0,0,1-1.7.66,9.26,9.26,0,0,1-2,.21A10.28,10.28,0,0,1,188.1,131.78Z" transform="translate(-47.75 -114.78)"/><path class="cls-1" d="M209.31,127.34H201.8c.12,1.67,1.18,2.5,3.16,2.5a6.18,6.18,0,0,0,3.33-.89v2.56a8.73,8.73,0,0,1-4.14.85,5.35,5.35,0,0,1-5.86-5.85A6.16,6.16,0,0,1,200,122,5.56,5.56,0,0,1,204,120.3a5,5,0,0,1,3.89,1.49,5.76,5.76,0,0,1,1.38,4.06ZM206,125.16c0-1.65-.67-2.47-2-2.47a1.93,1.93,0,0,0-1.48.71,3.18,3.18,0,0,0-.76,1.76Z" transform="translate(-47.75 -114.78)"/><path class="cls-1" d="M215,132.08h-3.55v-17H215Z" transform="translate(-47.75 -114.78)"/><path class="cls-1" d="M225.46,117.77a3.62,3.62,0,0,0-1.32-.27c-1.14,0-1.71.62-1.71,1.85v1.23h2.63v2.62h-2.63v8.88H218.9V123.2H217v-2.62h1.94v-1.43a4.1,4.1,0,0,1,1.28-3.16,4.83,4.83,0,0,1,3.48-1.21,6.11,6.11,0,0,1,1.8.23Z" transform="translate(-47.75 -114.78)"/><path class="cls-1" d="M230.43,132.08h-3.55v-17h3.55Z" transform="translate(-47.75 -114.78)"/><path class="cls-1" d="M243.75,127.34h-7.5c.12,1.67,1.17,2.5,3.15,2.5a6.24,6.24,0,0,0,3.34-.89v2.56a8.77,8.77,0,0,1-4.15.85,5.35,5.35,0,0,1-5.86-5.85,6.2,6.2,0,0,1,1.66-4.54,5.58,5.58,0,0,1,4.09-1.67,5,5,0,0,1,3.89,1.49,5.76,5.76,0,0,1,1.38,4.06Zm-3.29-2.18c0-1.65-.67-2.47-2-2.47a1.93,1.93,0,0,0-1.48.71,3.25,3.25,0,0,0-.76,1.76Z" transform="translate(-47.75 -114.78)"/><path class="cls-1" d="M245.11,131.78V128.9a7.89,7.89,0,0,0,1.74.79,5.89,5.89,0,0,0,1.65.26,3.59,3.59,0,0,0,1.49-.26.85.85,0,0,0,.54-.79.74.74,0,0,0-.24-.56,2.32,2.32,0,0,0-.64-.39,6,6,0,0,0-.85-.31c-.3-.09-.6-.19-.88-.3a8.06,8.06,0,0,1-1.21-.56,3.21,3.21,0,0,1-.88-.69,2.85,2.85,0,0,1-.54-.91,3.69,3.69,0,0,1-.18-1.22,3.15,3.15,0,0,1,.42-1.66,3.3,3.3,0,0,1,1.12-1.14,4.91,4.91,0,0,1,1.61-.65,8.27,8.27,0,0,1,1.88-.21,10.21,10.21,0,0,1,1.55.12,11.92,11.92,0,0,1,1.55.34v2.74a5.67,5.67,0,0,0-1.44-.59,6.21,6.21,0,0,0-1.51-.2,3.37,3.37,0,0,0-.66.06,3.23,3.23,0,0,0-.55.18,1,1,0,0,0-.37.31.68.68,0,0,0-.13.42.8.8,0,0,0,.2.54,1.82,1.82,0,0,0,.53.39c.22.1.46.2.72.29l.79.26a12.24,12.24,0,0,1,1.29.54,4.19,4.19,0,0,1,1,.69,2.69,2.69,0,0,1,.63.92,3.37,3.37,0,0,1,.22,1.25,3.23,3.23,0,0,1-.45,1.75,3.5,3.5,0,0,1-1.18,1.18,5.42,5.42,0,0,1-1.69.66,9.36,9.36,0,0,1-2,.21A10.26,10.26,0,0,1,245.11,131.78Z" transform="translate(-47.75 -114.78)"/><path class="cls-1" d="M255.23,131.78V128.9a7.89,7.89,0,0,0,1.74.79,5.89,5.89,0,0,0,1.65.26,3.59,3.59,0,0,0,1.49-.26.85.85,0,0,0,.54-.79.72.72,0,0,0-.25-.56,2.12,2.12,0,0,0-.63-.39,6,6,0,0,0-.85-.31c-.31-.09-.6-.19-.89-.3a7.93,7.93,0,0,1-1.2-.56,3.21,3.21,0,0,1-.88-.69,2.53,2.53,0,0,1-.54-.91,3.69,3.69,0,0,1-.18-1.22,3.15,3.15,0,0,1,.42-1.66,3.3,3.3,0,0,1,1.12-1.14,4.82,4.82,0,0,1,1.61-.65,8.27,8.27,0,0,1,1.88-.21,10.31,10.31,0,0,1,1.55.12,11.92,11.92,0,0,1,1.55.34v2.74a5.59,5.59,0,0,0-1.45-.59,6.09,6.09,0,0,0-1.51-.2,3.34,3.34,0,0,0-.65.06,3.23,3.23,0,0,0-.55.18,1,1,0,0,0-.37.31.68.68,0,0,0-.13.42.76.76,0,0,0,.2.54,1.7,1.7,0,0,0,.53.39,6.33,6.33,0,0,0,.72.29l.79.26a12,12,0,0,1,1.28.54,4.25,4.25,0,0,1,1,.69,2.54,2.54,0,0,1,.62.92,3.17,3.17,0,0,1,.22,1.25,3.23,3.23,0,0,1-.44,1.75,3.6,3.6,0,0,1-1.18,1.18,5.48,5.48,0,0,1-1.7.66,9.26,9.26,0,0,1-2,.21A10.22,10.22,0,0,1,255.23,131.78Z" transform="translate(-47.75 -114.78)"/><path class="cls-1" d="M283.39,120.58l-4.28,11.5h-4L271,120.58h3.8l2,7.09a10.84,10.84,0,0,1,.39,2h.05a11.87,11.87,0,0,1,.41-2l2.05-7.15Z" transform="translate(-47.75 -114.78)"/><path class="cls-1" d="M295,127.34h-7.5c.11,1.67,1.17,2.5,3.15,2.5A6.24,6.24,0,0,0,294,129v2.56a8.8,8.8,0,0,1-4.15.85,5.35,5.35,0,0,1-5.86-5.85,6.16,6.16,0,0,1,1.66-4.54,5.56,5.56,0,0,1,4.09-1.67,5,5,0,0,1,3.89,1.49,5.76,5.76,0,0,1,1.38,4.06Zm-3.29-2.18c0-1.65-.67-2.47-2-2.47a1.93,1.93,0,0,0-1.48.71,3.18,3.18,0,0,0-.76,1.76Z" transform="translate(-47.75 -114.78)"/><path class="cls-1" d="M304.08,131.94a5.17,5.17,0,0,1-2.37.42q-3.75,0-3.75-3.9V123.2H296.1v-2.62H298V118.1l3.54-1v3.49h2.58v2.62H301.5v4.65c0,1.19.47,1.79,1.42,1.79a2.48,2.48,0,0,0,1.16-.32Z" transform="translate(-47.75 -114.78)"/><path class="cls-1" d="M316.32,127.34h-7.5c.12,1.67,1.17,2.5,3.15,2.5a6.24,6.24,0,0,0,3.34-.89v2.56a8.75,8.75,0,0,1-4.14.85,5.35,5.35,0,0,1-5.87-5.85A6.2,6.2,0,0,1,307,122a5.58,5.58,0,0,1,4.09-1.67,5,5,0,0,1,3.89,1.49,5.76,5.76,0,0,1,1.38,4.06ZM313,125.16c0-1.65-.67-2.47-2-2.47a1.93,1.93,0,0,0-1.48.71,3.25,3.25,0,0,0-.76,1.76Z" transform="translate(-47.75 -114.78)"/><path class="cls-1" d="M325.93,123.78a3.07,3.07,0,0,0-1.49-.35,2.15,2.15,0,0,0-1.81.85,3.71,3.71,0,0,0-.65,2.31v5.49h-3.55v-11.5H322v2.13h0a3.07,3.07,0,0,1,3-2.33,2.28,2.28,0,0,1,.87.13Z" transform="translate(-47.75 -114.78)"/><path class="cls-1" d="M337.15,132.08h-3.36v-1.65h0a3.74,3.74,0,0,1-3.43,1.93,3.59,3.59,0,0,1-2.63-1,3.4,3.4,0,0,1-1-2.53q0-3.34,4-3.86l3.13-.42c0-1.26-.69-1.89-2.05-1.89a7,7,0,0,0-3.91,1.23v-2.68a9.41,9.41,0,0,1,2-.67,11,11,0,0,1,2.34-.29c3.28,0,4.92,1.63,4.92,4.91Zm-3.33-4.67v-.78l-2.09.27c-1.16.15-1.73.67-1.73,1.56a1.3,1.3,0,0,0,.42,1,1.65,1.65,0,0,0,1.14.38,2.1,2.1,0,0,0,1.63-.69A2.48,2.48,0,0,0,333.82,127.41Z" transform="translate(-47.75 -114.78)"/><path class="cls-1" d="M351.07,132.08h-3.54v-6.39c0-1.78-.64-2.67-1.91-2.67a1.91,1.91,0,0,0-1.52.7,2.75,2.75,0,0,0-.59,1.8v6.56H340v-11.5h3.55v1.82h0a4.08,4.08,0,0,1,3.7-2.1c2.54,0,3.82,1.58,3.82,4.74Z" transform="translate(-47.75 -114.78)"/><path class="cls-1" d="M353.12,131.78V128.9a8.17,8.17,0,0,0,1.75.79,5.87,5.87,0,0,0,1.64.26,3.56,3.56,0,0,0,1.49-.26.84.84,0,0,0,.55-.79.75.75,0,0,0-.25-.56,2.41,2.41,0,0,0-.63-.39,6.52,6.52,0,0,0-.85-.31c-.31-.09-.61-.19-.89-.3a8.06,8.06,0,0,1-1.21-.56,3,3,0,0,1-.87-.69,2.53,2.53,0,0,1-.54-.91,3.44,3.44,0,0,1-.19-1.22,3.15,3.15,0,0,1,.42-1.66,3.33,3.33,0,0,1,1.13-1.14,4.77,4.77,0,0,1,1.6-.65,8.33,8.33,0,0,1,1.88-.21,10.21,10.21,0,0,1,1.55.12,11.57,11.57,0,0,1,1.55.34v2.74a5.67,5.67,0,0,0-1.44-.59,6.15,6.15,0,0,0-1.51-.2,3.52,3.52,0,0,0-.66.06,3.1,3.1,0,0,0-.54.18,1,1,0,0,0-.37.31.68.68,0,0,0-.14.42.8.8,0,0,0,.2.54,2,2,0,0,0,.53.39,7.4,7.4,0,0,0,.73.29l.79.26a12,12,0,0,1,1.28.54,4,4,0,0,1,1,.69,2.56,2.56,0,0,1,.63.92,3.17,3.17,0,0,1,.22,1.25,3.32,3.32,0,0,1-.44,1.75,3.6,3.6,0,0,1-1.18,1.18,5.48,5.48,0,0,1-1.7.66,9.26,9.26,0,0,1-2,.21A10.28,10.28,0,0,1,353.12,131.78Z" transform="translate(-47.75 -114.78)"/><path class="cls-1" d="M65.72,148.18l-3.31,11.5H58.68L57,152.94a6.15,6.15,0,0,1-.19-1.47h-.07a8.38,8.38,0,0,1-.23,1.43l-1.82,6.78H51l-3.25-11.5h3.62l1.58,7.5a8,8,0,0,1,.17,1.28h.07a8,8,0,0,1,.2-1.32l2-7.46h3.38l1.77,7.5a10.57,10.57,0,0,1,.16,1.3h.08c0-.43.1-.86.18-1.3l1.49-7.5Z" transform="translate(-47.75 -114.78)"/><path class="cls-1" d="M78.45,159.68H74.91v-6.54c0-1.68-.61-2.52-1.84-2.52a1.89,1.89,0,0,0-1.53.7,2.74,2.74,0,0,0-.58,1.8v6.56H67.41v-17H71v7.24h0a4,4,0,0,1,3.54-2q3.92,0,3.91,4.72Z" transform="translate(-47.75 -114.78)"/><path class="cls-1" d="M86.74,160a6.18,6.18,0,0,1-4.52-1.61,6.66,6.66,0,0,1,.06-8.84,6.46,6.46,0,0,1,4.61-1.61,6.15,6.15,0,0,1,4.5,1.61A5.73,5.73,0,0,1,93,153.77a6.09,6.09,0,0,1-1.68,4.53A6.22,6.22,0,0,1,86.74,160Zm.09-9.34a2.37,2.37,0,0,0-2,.86,3.84,3.84,0,0,0-.69,2.45c0,2.21.89,3.31,2.67,3.31s2.55-1.13,2.55-3.4S88.54,150.62,86.83,150.62Z" transform="translate(-47.75 -114.78)"/><path class="cls-1" d="M112.91,159.68h-3.54V158.1h-.05a4,4,0,0,1-3.56,1.86,4.37,4.37,0,0,1-3.47-1.52,6.28,6.28,0,0,1-1.31-4.25,6.87,6.87,0,0,1,1.44-4.57,4.73,4.73,0,0,1,3.8-1.72,3.23,3.23,0,0,1,3.1,1.59h.05v-6.84h3.54Zm-3.48-5.59v-.87a2.67,2.67,0,0,0-.65-1.86,2.12,2.12,0,0,0-1.69-.74,2.17,2.17,0,0,0-1.85.92,4.34,4.34,0,0,0-.66,2.55,3.67,3.67,0,0,0,.64,2.33,2.27,2.27,0,0,0,3.53,0A3.57,3.57,0,0,0,109.43,154.09Z" transform="translate(-47.75 -114.78)"/><path class="cls-1" d="M126.23,154.94h-7.5c.12,1.67,1.17,2.5,3.16,2.5a6.15,6.15,0,0,0,3.33-.89v2.56a8.73,8.73,0,0,1-4.14.85,5.34,5.34,0,0,1-5.86-5.85,6.16,6.16,0,0,1,1.66-4.54A5.56,5.56,0,0,1,121,147.9a5.06,5.06,0,0,1,3.89,1.49,5.8,5.8,0,0,1,1.37,4.06Zm-3.29-2.18c0-1.65-.66-2.47-2-2.47a1.91,1.91,0,0,0-1.47.71,3.18,3.18,0,0,0-.76,1.76Z" transform="translate(-47.75 -114.78)"/><path class="cls-1" d="M137.06,159.26a7,7,0,0,1-3.47.7,5.86,5.86,0,0,1-4.29-1.61,5.55,5.55,0,0,1-1.64-4.14,6.13,6.13,0,0,1,1.76-4.62,6.48,6.48,0,0,1,4.7-1.69,6,6,0,0,1,2.94.54v3a4,4,0,0,0-2.48-.83,3.24,3.24,0,0,0-2.42.89,3.8,3.8,0,0,0,0,4.86,3.14,3.14,0,0,0,2.35.87,4.64,4.64,0,0,0,2.59-.83Z" transform="translate(-47.75 -114.78)"/><path class="cls-1" d="M141.18,146.36a2.09,2.09,0,0,1-1.47-.53,1.74,1.74,0,0,1-.57-1.31,1.65,1.65,0,0,1,.57-1.3,2.39,2.39,0,0,1,2.95,0,1.65,1.65,0,0,1,.57,1.3,1.69,1.69,0,0,1-.57,1.32A2.09,2.09,0,0,1,141.18,146.36Zm1.75,13.32h-3.55v-11.5h3.55Z" transform="translate(-47.75 -114.78)"/><path class="cls-1" d="M157.17,159.68h-3.55V158.1h0A4,4,0,0,1,150,160a4.37,4.37,0,0,1-3.47-1.52,6.28,6.28,0,0,1-1.31-4.25,6.87,6.87,0,0,1,1.44-4.57,4.73,4.73,0,0,1,3.8-1.72,3.23,3.23,0,0,1,3.1,1.59h0v-6.84h3.55Zm-3.48-5.59v-.87a2.72,2.72,0,0,0-.65-1.86,2.13,2.13,0,0,0-1.7-.74,2.15,2.15,0,0,0-1.84.92,4.34,4.34,0,0,0-.66,2.55,3.67,3.67,0,0,0,.64,2.33,2.12,2.12,0,0,0,1.77.82,2.15,2.15,0,0,0,1.76-.86A3.57,3.57,0,0,0,153.69,154.09Z" transform="translate(-47.75 -114.78)"/><path class="cls-1" d="M170.49,154.94H163c.12,1.67,1.17,2.5,3.16,2.5a6.15,6.15,0,0,0,3.33-.89v2.56a8.73,8.73,0,0,1-4.14.85,5.34,5.34,0,0,1-5.86-5.85,6.16,6.16,0,0,1,1.66-4.54,5.56,5.56,0,0,1,4.09-1.67,5.06,5.06,0,0,1,3.89,1.49,5.8,5.8,0,0,1,1.37,4.06Zm-3.29-2.18c0-1.65-.66-2.47-2-2.47a1.89,1.89,0,0,0-1.47.71,3.18,3.18,0,0,0-.76,1.76Z" transform="translate(-47.75 -114.78)"/><path class="cls-1" d="M183.86,159.68h-3.55V158.1h-.05A4,4,0,0,1,176.7,160a4.39,4.39,0,0,1-3.47-1.52,6.34,6.34,0,0,1-1.31-4.25,6.83,6.83,0,0,1,1.45-4.57,4.7,4.7,0,0,1,3.79-1.72,3.22,3.22,0,0,1,3.1,1.59h.05v-6.84h3.55Zm-3.48-5.59v-.87a2.68,2.68,0,0,0-.66-1.86,2.3,2.3,0,0,0-3.53.18,4.26,4.26,0,0,0-.67,2.55,3.74,3.74,0,0,0,.64,2.33,2.13,2.13,0,0,0,1.78.82,2.16,2.16,0,0,0,1.76-.86A3.63,3.63,0,0,0,180.38,154.09Z" transform="translate(-47.75 -114.78)"/><path class="cls-1" d="M200.14,159.54a5.17,5.17,0,0,1-2.37.42q-3.75,0-3.75-3.9V150.8h-1.86v-2.62H194V145.7l3.54-1v3.49h2.58v2.62h-2.58v4.65c0,1.19.47,1.79,1.42,1.79a2.48,2.48,0,0,0,1.16-.32Z" transform="translate(-47.75 -114.78)"/><path class="cls-1" d="M207.53,160a6.2,6.2,0,0,1-4.52-1.61,6.68,6.68,0,0,1,.06-8.84,6.48,6.48,0,0,1,4.62-1.61,6.12,6.12,0,0,1,4.49,1.61,5.7,5.7,0,0,1,1.63,4.26,6.09,6.09,0,0,1-1.68,4.53A6.24,6.24,0,0,1,207.53,160Zm.09-9.34a2.34,2.34,0,0,0-2,.86,3.78,3.78,0,0,0-.7,2.45c0,2.21.89,3.31,2.67,3.31s2.55-1.13,2.55-3.4S209.33,150.62,207.62,150.62Z" transform="translate(-47.75 -114.78)"/><path class="cls-1" d="M231.17,159.26a7,7,0,0,1-3.47.7,5.86,5.86,0,0,1-4.29-1.61,5.55,5.55,0,0,1-1.64-4.14,6.13,6.13,0,0,1,1.76-4.62,6.48,6.48,0,0,1,4.7-1.69,6,6,0,0,1,2.94.54v3a4,4,0,0,0-2.48-.83,3.24,3.24,0,0,0-2.42.89,3.83,3.83,0,0,0,0,4.86,3.14,3.14,0,0,0,2.35.87,4.62,4.62,0,0,0,2.59-.83Z" transform="translate(-47.75 -114.78)"/><path class="cls-1" d="M239,160a6.18,6.18,0,0,1-4.52-1.61,6.66,6.66,0,0,1,.06-8.84,6.46,6.46,0,0,1,4.61-1.61,6.11,6.11,0,0,1,4.49,1.61,5.7,5.7,0,0,1,1.63,4.26,6.12,6.12,0,0,1-1.67,4.53A6.26,6.26,0,0,1,239,160Zm.09-9.34a2.37,2.37,0,0,0-2,.86,3.84,3.84,0,0,0-.69,2.45c0,2.21.89,3.31,2.67,3.31s2.55-1.13,2.55-3.4S240.78,150.62,239.07,150.62Z" transform="translate(-47.75 -114.78)"/><path class="cls-1" d="M258.66,159.68h-3.54v-6.39c0-1.78-.63-2.67-1.9-2.67a1.9,1.9,0,0,0-1.52.7,2.69,2.69,0,0,0-.59,1.8v6.56h-3.55v-11.5h3.55V150h0a4.07,4.07,0,0,1,3.69-2.1q3.82,0,3.82,4.74Z" transform="translate(-47.75 -114.78)"/><path class="cls-1" d="M268.42,159.54a5.17,5.17,0,0,1-2.37.42q-3.75,0-3.75-3.9V150.8h-1.86v-2.62h1.86V145.7l3.54-1v3.49h2.58v2.62h-2.58v4.65c0,1.19.47,1.79,1.43,1.79a2.44,2.44,0,0,0,1.15-.32Z" transform="translate(-47.75 -114.78)"/><path class="cls-1" d="M272.22,146.36a2.09,2.09,0,0,1-1.47-.53,1.75,1.75,0,0,1-.58-1.31,1.66,1.66,0,0,1,.58-1.3,2.12,2.12,0,0,1,1.47-.51,2.15,2.15,0,0,1,1.48.51,1.67,1.67,0,0,1,.56,1.3,1.71,1.71,0,0,1-.56,1.32A2.11,2.11,0,0,1,272.22,146.36ZM274,159.68h-3.55v-11.5H274Z" transform="translate(-47.75 -114.78)"/><path class="cls-1" d="M288.06,159.68h-3.53v-6.39c0-1.78-.64-2.67-1.91-2.67a1.9,1.9,0,0,0-1.52.7,2.75,2.75,0,0,0-.59,1.8v6.56H277v-11.5h3.55V150h0a4.08,4.08,0,0,1,3.7-2.1q3.81,0,3.81,4.74Z" transform="translate(-47.75 -114.78)"/><path class="cls-1" d="M301.8,159.68h-3.54v-1.75h-.05a4,4,0,0,1-3.52,2c-2.66,0-4-1.61-4-4.84v-6.94h3.54v6.63c0,1.62.64,2.43,1.93,2.43a1.9,1.9,0,0,0,1.53-.67,2.69,2.69,0,0,0,.57-1.81v-6.58h3.54Z" transform="translate(-47.75 -114.78)"/><path class="cls-1" d="M315.12,154.94h-7.5c.12,1.67,1.17,2.5,3.15,2.5a6.16,6.16,0,0,0,3.34-.89v2.56A8.8,8.8,0,0,1,310,160a5.35,5.35,0,0,1-5.86-5.85,6.2,6.2,0,0,1,1.66-4.54,5.56,5.56,0,0,1,4.09-1.67,5,5,0,0,1,3.89,1.49,5.76,5.76,0,0,1,1.38,4.06Zm-3.29-2.18c0-1.65-.67-2.47-2-2.47a1.93,1.93,0,0,0-1.48.71,3.25,3.25,0,0,0-.76,1.76Z" transform="translate(-47.75 -114.78)"/><path class="cls-1" d="M48.32,187V184.1a7.89,7.89,0,0,0,1.74.79,5.89,5.89,0,0,0,1.65.26,3.59,3.59,0,0,0,1.49-.26.85.85,0,0,0,.54-.79.72.72,0,0,0-.25-.56,2.12,2.12,0,0,0-.63-.39,6,6,0,0,0-.85-.31c-.31-.09-.6-.19-.89-.3a7.93,7.93,0,0,1-1.2-.56,3.21,3.21,0,0,1-.88-.69,2.53,2.53,0,0,1-.54-.91,3.69,3.69,0,0,1-.18-1.22,3.15,3.15,0,0,1,.42-1.66,3.3,3.3,0,0,1,1.12-1.14,4.82,4.82,0,0,1,1.61-.65,8.27,8.27,0,0,1,1.88-.21,10.31,10.31,0,0,1,1.55.12,11.92,11.92,0,0,1,1.55.34v2.74a5.59,5.59,0,0,0-1.45-.59,6.09,6.09,0,0,0-1.51-.2,3.34,3.34,0,0,0-.65.06,3.23,3.23,0,0,0-.55.18,1,1,0,0,0-.37.31.68.68,0,0,0-.13.42.76.76,0,0,0,.2.54,1.7,1.7,0,0,0,.53.39,7.18,7.18,0,0,0,.72.29l.79.26a12,12,0,0,1,1.28.54,4.25,4.25,0,0,1,1,.69,2.54,2.54,0,0,1,.62.92,3.17,3.17,0,0,1,.22,1.25,3.23,3.23,0,0,1-.44,1.75,3.6,3.6,0,0,1-1.18,1.18,5.52,5.52,0,0,1-1.69.66,9.43,9.43,0,0,1-2,.21A10.22,10.22,0,0,1,48.32,187Z" transform="translate(-47.75 -114.78)"/><path class="cls-1" d="M69.52,182.54H62c.12,1.67,1.17,2.5,3.15,2.5a6.16,6.16,0,0,0,3.34-.89v2.56a8.77,8.77,0,0,1-4.15.85,5.35,5.35,0,0,1-5.86-5.85,6.2,6.2,0,0,1,1.66-4.54,5.58,5.58,0,0,1,4.09-1.67A5,5,0,0,1,68.14,177a5.76,5.76,0,0,1,1.38,4.06Zm-3.29-2.18c0-1.65-.67-2.47-2-2.47a1.93,1.93,0,0,0-1.48.71,3.17,3.17,0,0,0-.75,1.76Z" transform="translate(-47.75 -114.78)"/><path class="cls-1" d="M79.13,179a3.07,3.07,0,0,0-1.49-.35,2.15,2.15,0,0,0-1.81.85,3.71,3.71,0,0,0-.65,2.31v5.49H71.63v-11.5h3.55v2.13h0a3.09,3.09,0,0,1,3-2.33,2.28,2.28,0,0,1,.87.13Z" transform="translate(-47.75 -114.78)"/><path class="cls-1" d="M92.65,175.78l-4.27,11.5h-4l-4.07-11.5h3.79l2,7.09a9.44,9.44,0,0,1,.39,2h0a11.87,11.87,0,0,1,.41-2l2-7.15Z" transform="translate(-47.75 -114.78)"/><path class="cls-1" d="M96,174a2.09,2.09,0,0,1-1.47-.53,1.72,1.72,0,0,1-.58-1.31,1.63,1.63,0,0,1,.58-1.3,2.37,2.37,0,0,1,2.94,0,1.65,1.65,0,0,1,.57,1.3,1.69,1.69,0,0,1-.57,1.32A2.06,2.06,0,0,1,96,174Zm1.75,13.32H94.17v-11.5h3.55Z" transform="translate(-47.75 -114.78)"/><path class="cls-1" d="M111.81,187.28h-3.53v-6.39c0-1.78-.64-2.67-1.91-2.67a1.9,1.9,0,0,0-1.52.7,2.69,2.69,0,0,0-.59,1.8v6.56h-3.55v-11.5h3.55v1.82h0a4.08,4.08,0,0,1,3.7-2.1q3.81,0,3.81,4.74Z" transform="translate(-47.75 -114.78)"/><path class="cls-1" d="M125.9,186a6.48,6.48,0,0,1-1.86,4.95,7.45,7.45,0,0,1-5.36,1.76A8.58,8.58,0,0,1,115,192v-3a7,7,0,0,0,3.58,1,3.88,3.88,0,0,0,2.79-.94,3.43,3.43,0,0,0,1-2.58v-.91h0a4,4,0,0,1-3.58,1.93,4.31,4.31,0,0,1-3.49-1.55,6.29,6.29,0,0,1-1.29-4.16,7,7,0,0,1,1.43-4.63,4.69,4.69,0,0,1,3.79-1.72,3.48,3.48,0,0,1,3.14,1.62h0v-1.34h3.55Zm-3.51-4.22v-.91a2.78,2.78,0,0,0-.64-1.85,2.07,2.07,0,0,0-1.68-.77,2.16,2.16,0,0,0-1.86.92,4.39,4.39,0,0,0-.67,2.59,3.65,3.65,0,0,0,.64,2.28,2.1,2.1,0,0,0,1.75.83,2.15,2.15,0,0,0,1.78-.85A3.42,3.42,0,0,0,122.39,181.75Z" transform="translate(-47.75 -114.78)"/><path class="cls-1" d="M142.16,187.14a5.23,5.23,0,0,1-2.37.42q-3.75,0-3.75-3.9V178.4h-1.87v-2.62H136V173.3l3.54-1v3.49h2.58v2.62h-2.58v4.65c0,1.19.47,1.79,1.42,1.79a2.48,2.48,0,0,0,1.16-.32Z" transform="translate(-47.75 -114.78)"/><path class="cls-1" d="M155.2,187.28h-3.54v-6.54c0-1.68-.61-2.52-1.84-2.52a1.89,1.89,0,0,0-1.53.7,2.74,2.74,0,0,0-.58,1.8v6.56h-3.55v-17h3.55v7.24h0a4,4,0,0,1,3.54-2c2.6,0,3.91,1.57,3.91,4.72Z" transform="translate(-47.75 -114.78)"/><path class="cls-1" d="M168.34,182.54h-7.51C161,184.21,162,185,164,185a6.16,6.16,0,0,0,3.34-.89v2.56a8.8,8.8,0,0,1-4.15.85,5.35,5.35,0,0,1-5.86-5.85,6.16,6.16,0,0,1,1.66-4.54,5.56,5.56,0,0,1,4.09-1.67A5,5,0,0,1,167,177a5.76,5.76,0,0,1,1.38,4.06Zm-3.29-2.18c0-1.65-.67-2.47-2-2.47a1.93,1.93,0,0,0-1.48.71,3.18,3.18,0,0,0-.76,1.76Z" transform="translate(-47.75 -114.78)"/><path class="cls-1" d="M172.24,174a2.12,2.12,0,0,1-1.47-.53,1.74,1.74,0,0,1-.57-1.31,1.65,1.65,0,0,1,.57-1.3,2.16,2.16,0,0,1,1.47-.51,2.13,2.13,0,0,1,1.48.51,1.65,1.65,0,0,1,.57,1.3,1.69,1.69,0,0,1-.57,1.32A2.09,2.09,0,0,1,172.24,174ZM174,187.28h-3.55v-11.5H174Z" transform="translate(-47.75 -114.78)"/><path class="cls-1" d="M184.49,179a3.13,3.13,0,0,0-1.5-.35,2.15,2.15,0,0,0-1.81.85,3.71,3.71,0,0,0-.65,2.31v5.49H177v-11.5h3.55v2.13h.05a3.07,3.07,0,0,1,3-2.33,2.33,2.33,0,0,1,.88.13Z" transform="translate(-47.75 -114.78)"/><path class="cls-1" d="M201.2,186.86a7,7,0,0,1-3.47.7,5.86,5.86,0,0,1-4.29-1.61,5.51,5.51,0,0,1-1.64-4.14,6.09,6.09,0,0,1,1.76-4.62,6.46,6.46,0,0,1,4.69-1.69,6.05,6.05,0,0,1,2.95.54v3a4,4,0,0,0-2.48-.83,3.24,3.24,0,0,0-2.42.89,3.8,3.8,0,0,0,0,4.86,3.13,3.13,0,0,0,2.34.87,4.65,4.65,0,0,0,2.6-.83Z" transform="translate(-47.75 -114.78)"/><path class="cls-1" d="M209,187.56a6.21,6.21,0,0,1-4.52-1.61,6.68,6.68,0,0,1,.06-8.84,6.48,6.48,0,0,1,4.62-1.61,6.11,6.11,0,0,1,4.49,1.61,5.7,5.7,0,0,1,1.63,4.26,6.09,6.09,0,0,1-1.68,4.53A6.24,6.24,0,0,1,209,187.56Zm.09-9.34a2.34,2.34,0,0,0-2,.86,3.78,3.78,0,0,0-.7,2.45c0,2.21.89,3.31,2.67,3.31s2.55-1.13,2.55-3.4S210.81,178.22,209.09,178.22Z" transform="translate(-47.75 -114.78)"/><path class="cls-1" d="M228.51,187.28H225v-1.75h-.05a4,4,0,0,1-3.52,2c-2.66,0-4-1.61-4-4.84v-6.94h3.54v6.63c0,1.62.64,2.43,1.93,2.43a1.9,1.9,0,0,0,1.53-.67,2.69,2.69,0,0,0,.57-1.81v-6.58h3.54Z" transform="translate(-47.75 -114.78)"/><path class="cls-1" d="M242.6,187.28h-3.53v-6.39c0-1.78-.64-2.67-1.91-2.67a1.9,1.9,0,0,0-1.52.7,2.69,2.69,0,0,0-.59,1.8v6.56H231.5v-11.5h3.55v1.82h0a4.08,4.08,0,0,1,3.7-2.1q3.81,0,3.81,4.74Z" transform="translate(-47.75 -114.78)"/><path class="cls-1" d="M252.36,187.14a5.17,5.17,0,0,1-2.37.42q-3.75,0-3.75-3.9V178.4h-1.86v-2.62h1.86V173.3l3.54-1v3.49h2.58v2.62h-2.58v4.65c0,1.19.47,1.79,1.43,1.79a2.44,2.44,0,0,0,1.15-.32Z" transform="translate(-47.75 -114.78)"/><path class="cls-1" d="M261.86,179a3.07,3.07,0,0,0-1.49-.35,2.15,2.15,0,0,0-1.81.85,3.71,3.71,0,0,0-.65,2.31v5.49h-3.55v-11.5h3.55v2.13h0a3.07,3.07,0,0,1,3-2.33,2.28,2.28,0,0,1,.87.13Z" transform="translate(-47.75 -114.78)"/><path class="cls-1" d="M275.38,175.78l-4.67,12.42q-1.68,4.49-5.07,4.48a6.72,6.72,0,0,1-2.13-.29v-2.83a3,3,0,0,0,1.54.41,1.92,1.92,0,0,0,1.91-1.29l.61-1.42-4.67-11.48h3.93l2.14,7a8.88,8.88,0,0,1,.32,1.53h0a11.26,11.26,0,0,1,.37-1.51l2.17-7Z" transform="translate(-47.75 -114.78)"/><path class="cls-1" d="M285,174a2.09,2.09,0,0,1-1.47-.53,1.74,1.74,0,0,1-.57-1.31,1.65,1.65,0,0,1,.57-1.3,2.39,2.39,0,0,1,2.95,0,1.65,1.65,0,0,1,.57,1.3,1.69,1.69,0,0,1-.57,1.32A2.09,2.09,0,0,1,285,174Zm1.76,13.32h-3.55v-11.5h3.55Z" transform="translate(-47.75 -114.78)"/><path class="cls-1" d="M300.8,187.28h-3.54v-6.39c0-1.78-.64-2.67-1.91-2.67a1.88,1.88,0,0,0-1.51.7,2.7,2.7,0,0,0-.6,1.8v6.56h-3.55v-11.5h3.55v1.82h.05a4,4,0,0,1,3.69-2.1q3.82,0,3.82,4.74Z" transform="translate(-47.75 -114.78)"/><path class="cls-1" d="M319.52,187.28h-3.36v-1.65h0a3.74,3.74,0,0,1-3.43,1.93,3.59,3.59,0,0,1-2.63-.95,3.4,3.4,0,0,1-1-2.53q0-3.35,4-3.86l3.13-.42c0-1.26-.69-1.89-2.05-1.89a7,7,0,0,0-3.91,1.23v-2.68a9.41,9.41,0,0,1,2-.67,11,11,0,0,1,2.34-.29c3.28,0,4.92,1.63,4.92,4.91Zm-3.33-4.67v-.78l-2.09.27c-1.16.15-1.73.67-1.73,1.56a1.3,1.3,0,0,0,.42,1,1.6,1.6,0,0,0,1.14.38,2.12,2.12,0,0,0,1.63-.69A2.48,2.48,0,0,0,316.19,182.61Z" transform="translate(-47.75 -114.78)"/><path class="cls-1" d="M60.18,214.88H56.64v-6.39c0-1.78-.64-2.67-1.91-2.67a1.91,1.91,0,0,0-1.52.7,2.75,2.75,0,0,0-.59,1.8v6.56H49.07v-11.5h3.55v1.82h0a4.08,4.08,0,0,1,3.7-2.1c2.54,0,3.82,1.58,3.82,4.74Z" transform="translate(-47.75 -114.78)"/><path class="cls-1" d="M73.32,210.14H65.81c.12,1.67,1.18,2.5,3.16,2.5a6.21,6.21,0,0,0,3.33-.89v2.56a8.73,8.73,0,0,1-4.14.85,5.35,5.35,0,0,1-5.86-5.85A6.16,6.16,0,0,1,64,204.77a5.56,5.56,0,0,1,4.09-1.67,5,5,0,0,1,3.89,1.49,5.76,5.76,0,0,1,1.38,4.06ZM70,208c0-1.65-.66-2.47-2-2.47a1.91,1.91,0,0,0-1.48.71,3.18,3.18,0,0,0-.76,1.76Z" transform="translate(-47.75 -114.78)"/><path class="cls-1" d="M92.08,203.38l-3.31,11.5H85l-1.7-6.74a7.37,7.37,0,0,1-.19-1.47h-.06a9.51,9.51,0,0,1-.23,1.43L81,214.88H77.36l-3.25-11.5h3.62l1.58,7.5a9.3,9.3,0,0,1,.17,1.28h.07a7.1,7.1,0,0,1,.2-1.32l2-7.46h3.38l1.77,7.5a10.57,10.57,0,0,1,.16,1.3h.08a11.6,11.6,0,0,1,.18-1.3l1.49-7.5Z" transform="translate(-47.75 -114.78)"/><path class="cls-1" d="M111,214.88H107.5v-1.75h-.06a4,4,0,0,1-3.51,2q-4,0-4-4.84v-6.94h3.54V210c0,1.63.64,2.44,1.93,2.44a1.9,1.9,0,0,0,1.53-.67,2.69,2.69,0,0,0,.57-1.81v-6.58H111Z" transform="translate(-47.75 -114.78)"/><path class="cls-1" d="M125.13,214.88H121.6v-6.39c0-1.78-.64-2.67-1.91-2.67a1.9,1.9,0,0,0-1.52.7,2.7,2.7,0,0,0-.6,1.8v6.56H114v-11.5h3.54v1.82h.05a4.07,4.07,0,0,1,3.69-2.1q3.82,0,3.82,4.74Z" transform="translate(-47.75 -114.78)"/><path class="cls-1" d="M129.74,201.56a2.09,2.09,0,0,1-1.47-.53,1.72,1.72,0,0,1-.58-1.31,1.63,1.63,0,0,1,.58-1.3,2.37,2.37,0,0,1,2.94,0,1.65,1.65,0,0,1,.57,1.3,1.69,1.69,0,0,1-.57,1.32A2.06,2.06,0,0,1,129.74,201.56Zm1.75,13.32h-3.55v-11.5h3.55Z" transform="translate(-47.75 -114.78)"/><path class="cls-1" d="M142,200.57a3.62,3.62,0,0,0-1.32-.27c-1.13,0-1.7.62-1.7,1.85v1.23h2.63V206H139v8.88h-3.54V206h-1.93v-2.62h1.93V202a4.14,4.14,0,0,1,1.28-3.16,4.83,4.83,0,0,1,3.48-1.21,6.11,6.11,0,0,1,1.8.23Z" transform="translate(-47.75 -114.78)"/><path class="cls-1" d="M148.77,215.16a6.21,6.21,0,0,1-4.52-1.61,6.68,6.68,0,0,1,.06-8.84,6.44,6.44,0,0,1,4.62-1.61,6.07,6.07,0,0,1,4.49,1.61,5.7,5.7,0,0,1,1.63,4.26,6.09,6.09,0,0,1-1.68,4.53A6.24,6.24,0,0,1,148.77,215.16Zm.09-9.34a2.34,2.34,0,0,0-2,.86,3.78,3.78,0,0,0-.7,2.45c0,2.21.89,3.31,2.68,3.31s2.54-1.13,2.54-3.4S150.58,205.82,148.86,205.82Z" transform="translate(-47.75 -114.78)"/><path class="cls-1" d="M164.85,206.58a3.07,3.07,0,0,0-1.49-.35,2.15,2.15,0,0,0-1.81.85,3.71,3.71,0,0,0-.65,2.31v5.49h-3.55v-11.5h3.55v2.13h0a3.07,3.07,0,0,1,3-2.33,2.24,2.24,0,0,1,.87.13Z" transform="translate(-47.75 -114.78)"/><path class="cls-1" d="M184.83,214.88H181.3v-6.56c0-1.67-.62-2.5-1.84-2.5a1.68,1.68,0,0,0-1.43.75,3.07,3.07,0,0,0-.55,1.87v6.44h-3.55v-6.63c0-1.62-.6-2.43-1.81-2.43a1.73,1.73,0,0,0-1.45.71,3.15,3.15,0,0,0-.55,2v6.39h-3.55v-11.5h3.55v1.8h0a4.11,4.11,0,0,1,1.54-1.5,4.2,4.2,0,0,1,2.17-.58,3.31,3.31,0,0,1,3.34,2.14,4.25,4.25,0,0,1,3.86-2.14q3.75,0,3.75,4.62Z" transform="translate(-47.75 -114.78)"/><path class="cls-1" d="M189.22,215.16a2.08,2.08,0,0,1-1.46-.54,1.76,1.76,0,0,1-.58-1.33,1.67,1.67,0,0,1,.6-1.32,2.24,2.24,0,0,1,1.5-.52,2.14,2.14,0,0,1,1.49.53,1.69,1.69,0,0,1,.58,1.31,1.74,1.74,0,0,1-.59,1.35A2.24,2.24,0,0,1,189.22,215.16Z" transform="translate(-47.75 -114.78)"/></svg>