<svg id="Layer_1" data-name="Layer 1" xmlns="http://www.w3.org/2000/svg" viewBox="0 0 294 97.93" aria-labelledby="We work around your vision, not our services."><defs><style>.cls-1{}</style></defs><path class="cls-1" d="M77.46,116.25l-5.55,21H66.66l-3.48-13.48a11,11,0,0,1-.34-2.35h-.06a14.06,14.06,0,0,1-.38,2.35l-3.57,13.48H53.36l-5.52-21H53l3,14a16.56,16.56,0,0,1,.28,2.41h.08a11.8,11.8,0,0,1,.43-2.46l3.81-13.94h5.07l3.44,14.11a17.1,17.1,0,0,1,.34,2.26h0a16.12,16.12,0,0,1,.31-2.35l2.9-14Z" transform="translate(-47.52 -115.05)"/><path class="cls-1" d="M92.34,131.08H82.56q.22,3.27,4.11,3.27A8,8,0,0,0,91,133.17v3.34a11.31,11.31,0,0,1-5.4,1.12A7,7,0,0,1,78,130a8,8,0,0,1,2.17-5.92,7.2,7.2,0,0,1,5.33-2.19,6.56,6.56,0,0,1,5.08,2,7.53,7.53,0,0,1,1.79,5.29Zm-4.29-2.84c0-2.15-.87-3.23-2.61-3.23a2.47,2.47,0,0,0-1.92.93,4.06,4.06,0,0,0-1,2.3Z" transform="translate(-47.52 -115.05)"/><path class="cls-1" d="M125.09,122.26l-4.32,15h-4.86l-2.21-8.79a8.67,8.67,0,0,1-.25-1.92h-.09a11.42,11.42,0,0,1-.29,1.86l-2.37,8.85h-4.81l-4.23-15h4.71l2.07,9.79a12.2,12.2,0,0,1,.22,1.67h.09A9.07,9.07,0,0,1,109,132l2.58-9.73H116l2.31,9.79a15,15,0,0,1,.21,1.7h.1c0-.57.13-1.14.23-1.7l2-9.79Z" transform="translate(-47.52 -115.05)"/><path class="cls-1" d="M134.29,137.63a8,8,0,0,1-5.89-2.11,8.67,8.67,0,0,1,.08-11.52,8.41,8.41,0,0,1,6-2.11,8,8,0,0,1,5.86,2.11,7.48,7.48,0,0,1,2.12,5.56,7.93,7.93,0,0,1-2.19,5.9A8.18,8.18,0,0,1,134.29,137.63Zm.12-12.19a3.11,3.11,0,0,0-2.55,1.13,5,5,0,0,0-.91,3.19c0,2.88,1.17,4.32,3.49,4.32s3.33-1.48,3.33-4.44Q137.77,125.44,134.41,125.44Z" transform="translate(-47.52 -115.05)"/><path class="cls-1" d="M155.27,126.44a4,4,0,0,0-2-.46,2.82,2.82,0,0,0-2.36,1.11,4.85,4.85,0,0,0-.85,3v7.16h-4.62v-15h4.62V125h.06c.74-2,2.05-3,4-3a3.11,3.11,0,0,1,1.14.17Z" transform="translate(-47.52 -115.05)"/><path class="cls-1" d="M172.45,137.26H166.9l-4.79-7.44h-.06v7.44h-4.63V115.05h4.63v14.14h.06l4.47-6.93h5.49l-5.37,7Z" transform="translate(-47.52 -115.05)"/><path class="cls-1" d="M195,137.26h-4.38v-2.15h-.06a4.87,4.87,0,0,1-4.46,2.52,4.71,4.71,0,0,1-3.44-1.24,4.46,4.46,0,0,1-1.25-3.3q0-4.36,5.17-5l4.07-.55c0-1.64-.89-2.46-2.66-2.46a9.14,9.14,0,0,0-5.1,1.6v-3.49a11.27,11.27,0,0,1,2.64-.87,13.64,13.64,0,0,1,3.06-.39q6.41,0,6.41,6.41Zm-4.35-6.09v-1l-2.72.35c-1.51.19-2.26.87-2.26,2a1.71,1.71,0,0,0,.55,1.3,2.11,2.11,0,0,0,1.49.51,2.7,2.7,0,0,0,2.12-.91A3.23,3.23,0,0,0,190.6,131.17Z" transform="translate(-47.52 -115.05)"/><path class="cls-1" d="M208.4,126.44a4,4,0,0,0-2-.46,2.82,2.82,0,0,0-2.36,1.11,4.85,4.85,0,0,0-.85,3v7.16h-4.62v-15h4.62V125h.06c.74-2,2-3,4-3a3.11,3.11,0,0,1,1.14.17Z" transform="translate(-47.52 -115.05)"/><path class="cls-1" d="M217.58,137.63a8,8,0,0,1-5.89-2.11,8.67,8.67,0,0,1,.08-11.52,8.41,8.41,0,0,1,6-2.11,8,8,0,0,1,5.86,2.11,7.45,7.45,0,0,1,2.12,5.56,7.93,7.93,0,0,1-2.19,5.9A8.18,8.18,0,0,1,217.58,137.63Zm.12-12.19a3.11,3.11,0,0,0-2.55,1.13,5,5,0,0,0-.9,3.19q0,4.32,3.48,4.32t3.33-4.44Q221.06,125.44,217.7,125.44Z" transform="translate(-47.52 -115.05)"/><path class="cls-1" d="M243,137.26h-4.61V135h-.08a5.24,5.24,0,0,1-4.58,2.65q-5.22,0-5.22-6.32v-9h4.62v8.64q0,3.18,2.52,3.18a2.49,2.49,0,0,0,2-.87,3.51,3.51,0,0,0,.75-2.37v-8.58H243Z" transform="translate(-47.52 -115.05)"/><path class="cls-1" d="M261.41,137.26H256.8v-8.33c0-2.33-.83-3.49-2.49-3.49a2.49,2.49,0,0,0-2,.92,3.53,3.53,0,0,0-.78,2.35v8.55h-4.62v-15h4.62v2.37h.06a5.32,5.32,0,0,1,4.82-2.74c3.32,0,5,2.07,5,6.19Z" transform="translate(-47.52 -115.05)"/><path class="cls-1" d="M279.75,137.26h-4.63V135.2h-.05a5.21,5.21,0,0,1-4.65,2.43,5.66,5.66,0,0,1-4.52-2,8.17,8.17,0,0,1-1.72-5.54,8.93,8.93,0,0,1,1.89-6,6.15,6.15,0,0,1,4.95-2.25,4.24,4.24,0,0,1,4.05,2.08h.05v-8.92h4.63ZM275.21,130v-1.13a3.51,3.51,0,0,0-.85-2.43,3,3,0,0,0-4.61.24,5.57,5.57,0,0,0-.87,3.32,4.82,4.82,0,0,0,.84,3,2.76,2.76,0,0,0,2.31,1.07,2.79,2.79,0,0,0,2.3-1.13A4.68,4.68,0,0,0,275.21,130Z" transform="translate(-47.52 -115.05)"/><path class="cls-1" d="M63.81,158.26l-6.1,16.2q-2.19,5.85-6.62,5.85a8.6,8.6,0,0,1-2.77-.38v-3.7a3.85,3.85,0,0,0,2,.55,2.52,2.52,0,0,0,2.49-1.69l.79-1.86-6.09-15h5.12l2.8,9.13a11.49,11.49,0,0,1,.41,2h.06a15,15,0,0,1,.48-2l2.83-9.16Z" transform="translate(-47.52 -115.05)"/><path class="cls-1" d="M72.52,173.63a8,8,0,0,1-5.89-2.11A8.67,8.67,0,0,1,66.71,160a8.41,8.41,0,0,1,6-2.11A8,8,0,0,1,78.59,160a7.48,7.48,0,0,1,2.12,5.56,7.93,7.93,0,0,1-2.19,5.9A8.18,8.18,0,0,1,72.52,173.63Zm.12-12.19a3.09,3.09,0,0,0-2.55,1.13,4.93,4.93,0,0,0-.91,3.19q0,4.32,3.49,4.32,3.31,0,3.32-4.44C76,162.84,74.88,161.44,72.64,161.44Z" transform="translate(-47.52 -115.05)"/><path class="cls-1" d="M98,173.26H93.35V171h-.07a5.25,5.25,0,0,1-4.59,2.65q-5.2,0-5.21-6.32v-9.05h4.61v8.64q0,3.18,2.52,3.18a2.48,2.48,0,0,0,2-.87,3.51,3.51,0,0,0,.75-2.37v-8.58H98Z" transform="translate(-47.52 -115.05)"/><path class="cls-1" d="M111.65,162.44a4,4,0,0,0-2-.46,2.81,2.81,0,0,0-2.36,1.11,4.79,4.79,0,0,0-.85,3v7.16h-4.63v-15h4.63V161h.06a4,4,0,0,1,4-3,3.21,3.21,0,0,1,1.15.17Z" transform="translate(-47.52 -115.05)"/><path class="cls-1" d="M136.36,158.26l-5.58,15H125.5l-5.31-15h5l2.61,9.24a13.91,13.91,0,0,1,.51,2.67h.06a15.74,15.74,0,0,1,.54-2.58l2.67-9.33Z" transform="translate(-47.52 -115.05)"/><path class="cls-1" d="M140.68,155.89a2.69,2.69,0,0,1-1.92-.7,2.22,2.22,0,0,1-.75-1.7,2.15,2.15,0,0,1,.75-1.7,3.14,3.14,0,0,1,3.85,0,2.18,2.18,0,0,1,.74,1.7,2.23,2.23,0,0,1-.74,1.72A2.77,2.77,0,0,1,140.68,155.89ZM143,173.26h-4.63v-15H143Z" transform="translate(-47.52 -115.05)"/><path class="cls-1" d="M145.88,172.87v-3.75a9.94,9.94,0,0,0,2.28,1,7.37,7.37,0,0,0,2.14.34,4.58,4.58,0,0,0,1.95-.34,1.09,1.09,0,0,0,.71-1,1,1,0,0,0-.33-.74,3.2,3.2,0,0,0-.82-.51,9.56,9.56,0,0,0-1.11-.4,10.52,10.52,0,0,1-1.16-.39,11.58,11.58,0,0,1-1.57-.73,4.17,4.17,0,0,1-1.14-.9,3.45,3.45,0,0,1-.71-1.18,4.77,4.77,0,0,1-.24-1.6,4.09,4.09,0,0,1,.55-2.17A4.43,4.43,0,0,1,147.9,159a6.51,6.51,0,0,1,2.09-.85,10.4,10.4,0,0,1,2.45-.28,13.86,13.86,0,0,1,2,.16,14.15,14.15,0,0,1,2,.45v3.57a7.43,7.43,0,0,0-1.89-.77,7.9,7.9,0,0,0-2-.26,4.63,4.63,0,0,0-.85.08,3.11,3.11,0,0,0-.71.24,1.29,1.29,0,0,0-.49.39,1,1,0,0,0-.17.55,1.05,1.05,0,0,0,.26.71,2.45,2.45,0,0,0,.69.5,6.81,6.81,0,0,0,.94.38l1,.35a13.76,13.76,0,0,1,1.67.7,5.49,5.49,0,0,1,1.28.89,3.56,3.56,0,0,1,.82,1.21,4.23,4.23,0,0,1,.28,1.64,4.32,4.32,0,0,1-.57,2.27,4.63,4.63,0,0,1-1.54,1.54,6.9,6.9,0,0,1-2.21.87,12.4,12.4,0,0,1-2.6.27A13.64,13.64,0,0,1,145.88,172.87Z" transform="translate(-47.52 -115.05)"/><path class="cls-1" d="M162.4,155.89a2.65,2.65,0,0,1-1.91-.7,2.22,2.22,0,0,1-.75-1.7,2.15,2.15,0,0,1,.75-1.7,3.12,3.12,0,0,1,3.84,0,2.18,2.18,0,0,1,.74,1.7,2.23,2.23,0,0,1-.74,1.72A2.74,2.74,0,0,1,162.4,155.89Zm2.29,17.37h-4.63v-15h4.63Z" transform="translate(-47.52 -115.05)"/><path class="cls-1" d="M175.73,173.63a8,8,0,0,1-5.89-2.11,8.67,8.67,0,0,1,.08-11.52,8.41,8.41,0,0,1,6-2.11A8,8,0,0,1,181.8,160a7.48,7.48,0,0,1,2.12,5.56,7.93,7.93,0,0,1-2.19,5.9A8.18,8.18,0,0,1,175.73,173.63Zm.12-12.19a3.11,3.11,0,0,0-2.55,1.13,5,5,0,0,0-.91,3.19c0,2.88,1.17,4.32,3.49,4.32s3.33-1.48,3.33-4.44Q179.21,161.44,175.85,161.44Z" transform="translate(-47.52 -115.05)"/><path class="cls-1" d="M201.41,173.26H196.8v-8.33c0-2.33-.83-3.49-2.49-3.49a2.49,2.49,0,0,0-2,.92,3.53,3.53,0,0,0-.78,2.35v8.55h-4.62v-15h4.62v2.37h.06a5.32,5.32,0,0,1,4.82-2.74c3.32,0,5,2.07,5,6.19Z" transform="translate(-47.52 -115.05)"/><path class="cls-1" d="M227.84,173.26h-4.62v-8.33c0-2.33-.83-3.49-2.49-3.49a2.46,2.46,0,0,0-2,.92,3.53,3.53,0,0,0-.78,2.35v8.55h-4.63v-15H218v2.37H218a5.31,5.31,0,0,1,4.82-2.74c3.32,0,5,2.07,5,6.19Z" transform="translate(-47.52 -115.05)"/><path class="cls-1" d="M238.65,173.63a8,8,0,0,1-5.9-2.11,8.7,8.7,0,0,1,.08-11.52,8.45,8.45,0,0,1,6-2.11,8,8,0,0,1,5.86,2.11,7.45,7.45,0,0,1,2.13,5.56,7.93,7.93,0,0,1-2.19,5.9A8.18,8.18,0,0,1,238.65,173.63Zm.12-12.19a3.08,3.08,0,0,0-2.55,1.13,4.93,4.93,0,0,0-.91,3.19q0,4.32,3.49,4.32,3.31,0,3.32-4.44Q242.12,161.44,238.77,161.44Z" transform="translate(-47.52 -115.05)"/><path class="cls-1" d="M258.91,173.08a6.74,6.74,0,0,1-3.09.55c-3.26,0-4.9-1.7-4.9-5.09v-6.87h-2.43v-3.41h2.43V155l4.62-1.31v4.55h3.37v3.41h-3.37v6.07q0,2.34,1.86,2.34a3.17,3.17,0,0,0,1.51-.42Z" transform="translate(-47.52 -115.05)"/><path class="cls-1" d="M276.94,173.63a8,8,0,0,1-5.9-2.11,8.7,8.7,0,0,1,.08-11.52,8.46,8.46,0,0,1,6-2.11A7.94,7.94,0,0,1,283,160a7.45,7.45,0,0,1,2.13,5.56,7.93,7.93,0,0,1-2.19,5.9A8.18,8.18,0,0,1,276.94,173.63Zm.12-12.19a3.08,3.08,0,0,0-2.55,1.13,4.93,4.93,0,0,0-.91,3.19q0,4.32,3.49,4.32,3.32,0,3.32-4.44Q280.41,161.44,277.06,161.44Z" transform="translate(-47.52 -115.05)"/><path class="cls-1" d="M302.38,173.26h-4.61V171h-.07a5.26,5.26,0,0,1-4.59,2.65q-5.21,0-5.21-6.32v-9.05h4.61v8.64q0,3.18,2.52,3.18a2.48,2.48,0,0,0,2-.87,3.51,3.51,0,0,0,.75-2.37v-8.58h4.61Z" transform="translate(-47.52 -115.05)"/><path class="cls-1" d="M316.07,162.44a4,4,0,0,0-1.95-.46,2.81,2.81,0,0,0-2.36,1.11,4.79,4.79,0,0,0-.85,3v7.16h-4.63v-15h4.63V161H311a4,4,0,0,1,3.95-3,3.21,3.21,0,0,1,1.15.17Z" transform="translate(-47.52 -115.05)"/><path class="cls-1" d="M48.54,208.87v-3.75a9.94,9.94,0,0,0,2.28,1,7.39,7.39,0,0,0,2.15.34,4.53,4.53,0,0,0,1.94-.34,1.09,1.09,0,0,0,.71-1,1,1,0,0,0-.33-.74,3.2,3.2,0,0,0-.82-.51,9.56,9.56,0,0,0-1.11-.4,11.28,11.28,0,0,1-1.16-.39,11.58,11.58,0,0,1-1.57-.73,4.54,4.54,0,0,1-1.14-.9,3.45,3.45,0,0,1-.71-1.18,4.77,4.77,0,0,1-.24-1.6,4.19,4.19,0,0,1,.55-2.17A4.52,4.52,0,0,1,50.56,195a6.51,6.51,0,0,1,2.09-.85,10.4,10.4,0,0,1,2.45-.28,14.1,14.1,0,0,1,2,.16,14.33,14.33,0,0,1,2,.45v3.57a7.52,7.52,0,0,0-1.88-.77,8,8,0,0,0-2-.26,4.63,4.63,0,0,0-.85.08,3.11,3.11,0,0,0-.71.24,1.29,1.29,0,0,0-.49.39,1,1,0,0,0-.17.55,1.05,1.05,0,0,0,.26.71,2.45,2.45,0,0,0,.69.5,6.48,6.48,0,0,0,.95.38l1,.35a13.76,13.76,0,0,1,1.67.7,5.29,5.29,0,0,1,1.28.89,3.56,3.56,0,0,1,.82,1.21,4.22,4.22,0,0,1,.29,1.64,4.33,4.33,0,0,1-.58,2.27,4.63,4.63,0,0,1-1.54,1.54,7.14,7.14,0,0,1-2.21.87,12.33,12.33,0,0,1-2.6.27A13.64,13.64,0,0,1,48.54,208.87Z" transform="translate(-47.52 -115.05)"/><path class="cls-1" d="M76.2,203.08H66.41q.24,3.27,4.12,3.27a8,8,0,0,0,4.35-1.18v3.34a11.35,11.35,0,0,1-5.41,1.12A7,7,0,0,1,61.83,202,8,8,0,0,1,64,196.08a7.2,7.2,0,0,1,5.33-2.19,6.53,6.53,0,0,1,5.07,2,7.49,7.49,0,0,1,1.8,5.29Zm-4.29-2.84c0-2.15-.87-3.23-2.61-3.23a2.49,2.49,0,0,0-1.93.93,4.2,4.2,0,0,0-1,2.3Z" transform="translate(-47.52 -115.05)"/><path class="cls-1" d="M88.74,198.44a4,4,0,0,0-1.95-.46,2.81,2.81,0,0,0-2.36,1.11,4.79,4.79,0,0,0-.85,3v7.16H79v-15h4.63V197h.06a4,4,0,0,1,4-3,3.21,3.21,0,0,1,1.15.17Z" transform="translate(-47.52 -115.05)"/><path class="cls-1" d="M106.37,194.26l-5.58,15H95.52l-5.32-15h5l2.61,9.24a13.91,13.91,0,0,1,.51,2.67h.06a15.74,15.74,0,0,1,.54-2.58l2.67-9.33Z" transform="translate(-47.52 -115.05)"/><path class="cls-1" d="M110.7,191.89a2.65,2.65,0,0,1-1.92-.7,2.22,2.22,0,0,1-.75-1.7,2.15,2.15,0,0,1,.75-1.7,3.12,3.12,0,0,1,3.84,0,2.18,2.18,0,0,1,.74,1.7,2.23,2.23,0,0,1-.74,1.72A2.73,2.73,0,0,1,110.7,191.89ZM113,209.26h-4.63v-15H113Z" transform="translate(-47.52 -115.05)"/><path class="cls-1" d="M128.24,208.72a9.18,9.18,0,0,1-4.52.91,7.65,7.65,0,0,1-5.6-2.1,7.25,7.25,0,0,1-2.14-5.4,8,8,0,0,1,2.3-6,8.46,8.46,0,0,1,6.13-2.21,7.82,7.82,0,0,1,3.83.71v3.92a5.26,5.26,0,0,0-3.23-1.08A4.54,4.54,0,0,0,121.8,205a4.11,4.11,0,0,0,3.06,1.13,6.11,6.11,0,0,0,3.38-1.08Z" transform="translate(-47.52 -115.05)"/><path class="cls-1" d="M144.75,203.08H135c.15,2.18,1.53,3.27,4.11,3.27a8,8,0,0,0,4.35-1.18v3.34a11.28,11.28,0,0,1-5.4,1.12,7,7,0,0,1-7.65-7.63,8,8,0,0,1,2.17-5.92,7.21,7.21,0,0,1,5.33-2.19,6.56,6.56,0,0,1,5.08,2,7.53,7.53,0,0,1,1.79,5.29Zm-4.29-2.84c0-2.15-.87-3.23-2.61-3.23a2.47,2.47,0,0,0-1.92.93,4.2,4.2,0,0,0-1,2.3Z" transform="translate(-47.52 -115.05)"/><path class="cls-1" d="M146.53,208.87v-3.75a10.07,10.07,0,0,0,2.27,1,7.44,7.44,0,0,0,2.15.34,4.5,4.5,0,0,0,1.94-.34,1.09,1.09,0,0,0,.71-1,1,1,0,0,0-.32-.74,3.27,3.27,0,0,0-.83-.51,8.93,8.93,0,0,0-1.11-.4,10.35,10.35,0,0,1-1.15-.39,11.74,11.74,0,0,1-1.58-.73,4.73,4.73,0,0,1-1.14-.9,3.42,3.42,0,0,1-.7-1.18,4.77,4.77,0,0,1-.24-1.6,4.18,4.18,0,0,1,.54-2.17,4.52,4.52,0,0,1,1.47-1.48,6.61,6.61,0,0,1,2.09-.85,10.48,10.48,0,0,1,2.46-.28,14.62,14.62,0,0,1,4,.61v3.57a7.37,7.37,0,0,0-1.88-.77,8,8,0,0,0-2-.26,4.74,4.74,0,0,0-.86.08,3.28,3.28,0,0,0-.71.24,1.25,1.25,0,0,0-.48.39.93.93,0,0,0-.18.55,1,1,0,0,0,.27.71,2.27,2.27,0,0,0,.68.5,7,7,0,0,0,.95.38l1,.35a13.12,13.12,0,0,1,1.67.7,5.1,5.1,0,0,1,1.28.89,3.56,3.56,0,0,1,.82,1.21,4.75,4.75,0,0,1-.29,3.91,4.63,4.63,0,0,1-1.54,1.54,7,7,0,0,1-2.21.87,12.26,12.26,0,0,1-2.6.27A13.54,13.54,0,0,1,146.53,208.87Z" transform="translate(-47.52 -115.05)"/><path class="cls-1" d="M162.77,209.63a2.68,2.68,0,0,1-1.9-.71,2.24,2.24,0,0,1-.77-1.72,2.18,2.18,0,0,1,.79-1.73,2.88,2.88,0,0,1,2-.68,2.8,2.8,0,0,1,1.94.68,2.22,2.22,0,0,1,.76,1.73,2.25,2.25,0,0,1-.77,1.75A2.92,2.92,0,0,1,162.77,209.63Z" transform="translate(-47.52 -115.05)"/></svg>